#N canvas 1421 30 499 987 12;
#X text 16 665 FM SYNTH FX;
#X msg 23 748 710;
#X msg 212 749 530;
#X obj 21 690 bng 15 250 50 0 empty empty empty 17 7 0 10 #fcfcfc #000000
#000000;
#X text 61 750 good with yakut mode;
#N canvas 325 393 261 194 fm_carrier_gliss 0;
#X obj 40 35 inlet;
#X obj 107 35 inlet;
#X obj 40 120 line;
#X obj 40 145 s fm_carrier;
#X obj 154 35 inlet;
#X obj 40 70 pack \$1 \$2 \$3;
#X msg 40 95 \$1 \, \$2 \$3;
#X msg 127 96 stop;
#X connect 0 0 5 1;
#X connect 1 0 5 0;
#X connect 2 0 3 0;
#X connect 4 0 5 2;
#X connect 5 0 6 0;
#X connect 6 0 2 0;
#X connect 7 0 2 0;
#X restore 23 843 pd fm_carrier_gliss;
#N canvas 735 373 486 300 fm_counter_motion 0;
#X obj 21 15 inlet;
#X msg 21 40 \$1 \, 500 3000 0.1;
#X obj 21 65 line;
#X obj 21 90 s fm_carrier;
#X obj 176 65 line;
#X obj 176 90 s fm_d;
#X msg 176 40 1000 \, 100 3000 0.1;
#X obj 333 89 s fm_mod;
#X msg 333 38 98 \, 130 4000 0.01;
#X obj 333 63 line;
#X text 275 203 time total: 4 sec;
#X connect 0 0 1 0;
#X connect 0 0 6 0;
#X connect 0 0 8 0;
#X connect 1 0 2 0;
#X connect 2 0 3 0;
#X connect 4 0 5 0;
#X connect 6 0 4 0;
#X connect 8 0 9 0;
#X connect 9 0 7 0;
#X restore 212 779 pd fm_counter_motion;
#N canvas 1457 518 215 145 fm_mod_freq_scale 0;
#X obj 53 27 inlet;
#X obj 53 77 line;
#X obj 53 102 s fm_mod;
#X msg 53 52 15 \, \$1 10000 1000;
#X connect 0 0 3 0;
#X connect 1 0 2 0;
#X connect 3 0 1 0;
#X restore 23 775 pd fm_mod_freq_scale;
#N canvas 1334 398 229 150 fm_bell 0;
#X obj 63 65 line;
#X obj 63 85 s fm_d;
#X msg 63 45 1000 \, 100 2000;
#X obj 63 18 inlet;
#X connect 0 0 1 0;
#X connect 2 0 0 0;
#X connect 3 0 2 0;
#X restore 21 712 pd fm_bell;
#N canvas 735 373 183 184 fm_reverse_bell 0;
#X obj 46 115 line;
#X obj 46 135 s fm_d;
#X obj 46 68 inlet;
#X msg 46 95 100 \, 1000 \$1;
#X connect 0 0 1 0;
#X connect 2 0 3 0;
#X connect 3 0 0 0;
#X restore 104 712 pd fm_reverse_bell;
#X msg 23 815 330;
#X msg 64 813 360;
#X text 171 845 good with bells and as ii2scale;
#X text 1058 674 KARPLUS_STRONG;
#N canvas 1197 245 626 437 micro_steps 0;
#N canvas 735 398 450 250 (subpatch) 0;
#X array ks_notes 24 float 3;
#A 0 2.52143 2.47857 2.5 2.43571 2.54286 2.62857 2.60714 2.54286 2.52143
2.54286 2.47857 2.54286 2.60714 2.58571 2.56429 2.62857 2.60714 2.52143
2.58571 2.62857 2.56429 2.52142 2.58571 2.62857;
#X coords 0 7 24 1 240 140 1 0 0;
#X restore 25 24 graph;
#X obj 44 255 line;
#X obj 44 284 tabread ks_notes;
#X obj 44 364 s ks_fr;
#X obj 44 328 +;
#X obj 44 195 inlet;
#X obj 552 286 inlet;
#X msg 44 230 0 \, 24 4000 96;
#N canvas 0 50 450 250 (subpatch) 0;
#X array ks_notes_2 24 float 3;
#A 0 2.71429 2.88571 2.88571 2.84286 2.84286 2.84286 2.84286 2.88571
2.88571 2.88571 2.88571 2.88571 2.88571 2.88571 2.88571 2.92857 2.88571
2.75714 2.75714 2.8 2.67143 2.67143 2.67143 2.71429;
#X coords 0 7 24 1 240 140 1 0 0;
#X restore 324 30 graph;
#X obj 328 255 line;
#X obj 328 364 s ks_fr;
#X obj 328 328 +;
#X obj 328 195 inlet;
#X obj 328 284 tabread ks_notes_2;
#X msg 328 230 0 \, 24 2000 48;
#X obj 154 254 s ksbp_a;
#X obj 223 254 s ksbp_b;
#X msg 154 229 10000;
#X msg 223 229 360;
#X connect 1 0 2 0;
#X connect 2 0 4 0;
#X connect 4 0 3 0;
#X connect 5 0 7 0;
#X connect 5 0 17 0;
#X connect 5 0 18 0;
#X connect 6 0 4 1;
#X connect 6 0 11 1;
#X connect 7 0 1 0;
#X connect 9 0 13 0;
#X connect 11 0 10 0;
#X connect 12 0 14 0;
#X connect 13 0 11 0;
#X connect 14 0 9 0;
#X connect 17 0 15 0;
#X connect 18 0 16 0;
#X restore 1058 732 pd micro_steps;
#X obj 1058 706 bng 15 250 50 0 empty empty empty 17 7 0 10 #fcfcfc
#000000 #000000;
#N canvas 1195 308 450 300 ks_params 0;
#X obj 75 41 inlet;
#X msg 43 113 0.999;
#X obj 43 138 s ks_c;
#X obj 102 138 s ks_d;
#X msg 163 113 11662;
#X obj 163 138 s ksbp_a;
#X msg 234 111 123;
#X obj 234 136 s ksbp_b;
#X obj 306 134 s ks_v;
#X msg 102 113 15.7;
#X msg 306 109 0.3;
#X connect 0 0 1 0;
#X connect 0 0 9 0;
#X connect 0 0 4 0;
#X connect 0 0 6 0;
#X connect 0 0 10 0;
#X connect 1 0 2 0;
#X connect 4 0 5 0;
#X connect 6 0 7 0;
#X connect 9 0 3 0;
#X connect 10 0 8 0;
#X restore 1055 780 pd ks_params;
#X obj 1055 759 bng 15 250 50 0 empty empty empty 17 7 0 10 #fcfcfc
#000000 #000000;
#N canvas 735 373 450 151 fm_vol_up_down 0;
#X obj 85 35 inlet;
#X obj 85 85 line;
#X obj 85 110 s fm_v;
#X obj 271 33 inlet;
#X obj 271 83 line;
#X obj 271 108 s fm_v;
#X msg 85 60 0 \, 0.4 \$1;
#X msg 271 58 0.2 \, 0.01 \$1;
#X connect 0 0 6 0;
#X connect 1 0 2 0;
#X connect 3 0 7 0;
#X connect 4 0 5 0;
#X connect 6 0 1 0;
#X connect 7 0 4 0;
#X restore 242 711 pd fm_vol_up_down;
#X obj 1156 756 tgl 15 0 empty empty empty 17 7 0 10 #fcfcfc #000000
#000000 0 1;
#N canvas 735 373 450 300 ks_random 0;
#X obj 62 33 inlet;
#X obj 62 79 metro 200;
#X obj 63 269 s ks_fr;
#X obj 62 158 random 15;
#X obj 206 79 metro 200;
#X obj 206 158 random 15;
#X obj 206 183 / 10;
#X obj 160 215 +;
#X obj 314 34 random 500;
#X obj 229 243 b;
#X obj 346 130 s ks;
#X msg 346 93 1;
#X connect 0 0 1 0;
#X connect 0 0 4 0;
#X connect 0 0 11 0;
#X connect 1 0 3 0;
#X connect 3 0 7 0;
#X connect 4 0 5 0;
#X connect 5 0 6 0;
#X connect 6 0 7 1;
#X connect 7 0 2 0;
#X connect 7 0 9 0;
#X connect 8 0 4 1;
#X connect 8 0 1 1;
#X connect 9 0 8 0;
#X connect 11 0 10 0;
#X restore 1156 781 pd ks_random;
#N canvas 745 97 450 300 ksbp_a_gliss 0;
#X obj 54 33 inlet;
#X obj 54 83 line;
#X obj 54 108 s ksbp_a;
#X obj 240 31 inlet;
#X obj 240 81 line;
#X obj 240 106 s ksbp_a;
#X msg 54 58 20 \, 20000 5000;
#X msg 240 56 20000 \, 20 5000;
#X connect 0 0 6 0;
#X connect 1 0 2 0;
#X connect 3 0 7 0;
#X connect 4 0 5 0;
#X connect 6 0 1 0;
#X connect 7 0 4 0;
#X restore 1188 703 pd ksbp_a_gliss;
#X obj 1186 685 bng 15 250 50 0 empty empty empty 17 7 0 10 #fcfcfc
#000000 #000000;
#X obj 1290 684 bng 15 250 50 0 empty empty empty 17 7 0 10 #fcfcfc
#000000 #000000;
#N canvas 1364 509 450 300 ksbp_b_gliss 0;
#X obj 54 33 inlet;
#X obj 54 83 line;
#X obj 240 31 inlet;
#X obj 240 81 line;
#X obj 54 108 s ksbp_b;
#X obj 240 106 s ksbp_b;
#X msg 54 58 20 \, 1000 5000;
#X msg 240 56 1000 \, 20 5000;
#X connect 0 0 6 0;
#X connect 1 0 4 0;
#X connect 2 0 7 0;
#X connect 3 0 5 0;
#X connect 6 0 1 0;
#X connect 7 0 3 0;
#X restore 1191 754 pd ksbp_b_gliss;
#X obj 1191 734 bng 15 250 50 0 empty empty empty 17 7 0 10 #fcfcfc
#000000 #000000;
#X obj 1293 734 bng 15 250 50 0 empty empty empty 17 7 0 10 #fcfcfc
#000000 #000000;
#X text 1338 682 GLISSON FX;
#N canvas 782 118 473 400 glisson_motive 0;
#X obj 37 34 inlet;
#N canvas 0 50 450 250 (subpatch) 0;
#X array freqs_a 100 float 3;
#A 0 452 458.857 455.429 462.286 462.286 445.143 443.429 438.286 140
143.428 146.857 362.854 352.568 338.854 325.14 318.283 325.143 314.854
311.426 304.569 294.283 283.998 280.569 386.857 397.143 404 410.857
424.571 434.857 438.285 232.57 225.713 208.571 222.284 331.997 335.429
327.426 242.857 246.286 256.571 266.857 270.285 290.857 297.714 328.571
321.712 424.572 421.143 428 434.857 424.572 414.286 424.571 424.571
397.143 301.143 297.714 304.571 280.571 280.571 270.286 253.143 249.715
421.143 424.571 434.857 445.143 448.571 455.428 458.857 133.143 140
143.428 150.285 160.571 170.857 452 448.572 445.143 434.857 428 424.572
424.571 352.572 345.715 338.858 362.857 362.857 362.857 345.714 345.714
345.714 263.428 263.428 263.428 263.428 263.428 263.428 260 256.571
;
#X coords 0 500 100 20 200 140 1 0 0;
#X restore 236 30 graph;
#X obj 37 158 line;
#X obj 37 272 tabread freqs_a;
#X obj 37 302 s gl_fr_a;
#X msg 105 71 1;
#X obj 105 96 s gl_on;
#N canvas 0 50 450 250 (subpatch) 0;
#X array freqs_b 100 float 3;
#A 0 304.571 304.571 304.571 397.143 301.143 301.143 301.143 301.143
236 342.286 342.286 325.143 338.857 342.286 301.143 301.143 301.143
301.143 301.143 301.143 256.572 256.572 249.715 249.715 249.715 249.715
294.286 294.286 383.429 294.286 294.286 294.286 294.286 236 294.286
277.143 277.143 277.143 277.143 277.143 290.858 290.858 407.429 290.858
321.714 321.714 321.714 321.714 321.714 160.571 290.858 266.857 263.429
263.429 263.429 263.429 263.429 177.714 287.429 390.286 277.143 277.143
280.571 280.571 345.714 287.429 287.429 201.714 205.143 208.571 287.429
284.001 284.001 280.572 321.714 321.714 311.429 380 277.144 284.001
287.429 287.429 242.857 294.286 294.286 294.286 294.286 294.286 290.858
314.856 314.856 314.856 314.856 316.57 318.284 297.714 297.714 297.714
297.714 294.286;
#X coords 0 500 100 20 200 140 1 0 0;
#X restore 237 199 graph;
#X obj 113 301 tabread freqs_b;
#X floatatom 37 183 5 0 0 0 - - - 0;
#X obj 113 326 s gl_fr_b;
#X msg 96 173 stop;
#X msg 37 133 0 \, 100 50000 500;
#X msg 160 71 0.1;
#X obj 160 96 s gl_v;
#X msg 152 162 1000;
#X obj 152 187 s gl_gr_dur;
#X connect 0 0 5 0;
#X connect 0 0 12 0;
#X connect 0 0 13 0;
#X connect 0 0 15 0;
#X connect 2 0 9 0;
#X connect 3 0 4 0;
#X connect 5 0 6 0;
#X connect 8 0 10 0;
#X connect 9 0 3 0;
#X connect 9 0 8 0;
#X connect 11 0 2 0;
#X connect 12 0 2 0;
#X connect 13 0 14 0;
#X connect 15 0 16 0;
#X restore 1339 773 pd glisson_motive;
#N canvas 1336 345 474 300 glisson_params 0;
#X obj 24 14 inlet;
#X msg 45 81 1;
#X obj 45 106 s gl_duty;
#X msg 118 81 2000;
#X obj 118 106 s gl_gr_dur;
#X msg 203 81 0.1;
#X obj 203 106 s gl_v;
#X msg 266 80 100;
#X obj 266 105 s gl_cl;
#X obj 320 103 line;
#X obj 320 128 s gdv;
#X msg 18 149 1;
#X obj 18 174 s gd_e;
#X msg 320 78 0 \, 0.7 200;
#X msg 113 175 1;
#X obj 113 200 s gl_on;
#X connect 0 0 1 0;
#X connect 0 0 3 0;
#X connect 0 0 5 0;
#X connect 0 0 7 0;
#X connect 0 0 13 0;
#X connect 0 0 11 0;
#X connect 0 0 14 0;
#X connect 1 0 2 0;
#X connect 3 0 4 0;
#X connect 5 0 6 0;
#X connect 7 0 8 0;
#X connect 9 0 10 0;
#X connect 11 0 12 0;
#X connect 13 0 9 0;
#X connect 14 0 15 0;
#X restore 1338 726 pd glisson_params;
#X obj 1338 708 bng 15 250 50 0 empty empty empty 17 7 0 10 #fcfcfc
#000000 #000000;
#X obj 1339 753 bng 15 250 50 0 empty empty empty 17 7 0 10 #fcfcfc
#000000 #000000;
#N canvas 735 373 450 300 gl_vol_up_down 0;
#X obj 85 35 inlet;
#X obj 85 85 line;
#X obj 271 33 inlet;
#X obj 271 83 line;
#X obj 85 110 s gl_v;
#X obj 271 108 s gl_v;
#X msg 85 60 0 \, 0.1 10000;
#X msg 271 58 0.1 \, 0 10000;
#X connect 0 0 6 0;
#X connect 1 0 4 0;
#X connect 2 0 7 0;
#X connect 3 0 5 0;
#X connect 6 0 1 0;
#X connect 7 0 3 0;
#X restore 1512 714 pd gl_vol_up_down;
#X obj 1512 696 bng 15 250 50 0 empty empty empty 17 7 0 10 #fcfcfc
#000000 #000000;
#X obj 1628 695 bng 15 250 50 0 empty empty empty 17 7 0 10 #fcfcfc
#000000 #000000;
#N canvas 692 267 450 300 gliss_a 0;
#X obj 80 36 inlet;
#X obj 139 81 * 1.2;
#X obj 80 132 pack \$1 \$2;
#X msg 80 157 \$2 \, \$1 1000;
#X obj 80 182 line;
#X obj 80 207 s gl_fr_a;
#X obj 209 37 inlet;
#X connect 0 0 1 0;
#X connect 0 0 2 1;
#X connect 1 0 2 0;
#X connect 2 0 3 0;
#X connect 3 0 4 0;
#X connect 4 0 5 0;
#X connect 6 0 1 1;
#X restore 1508 773 pd gliss_a;
#X msg 1508 747 330;
#N canvas 692 267 450 300 gliss_b 0;
#X obj 80 36 inlet;
#X obj 139 81 * 1.2;
#X obj 80 132 pack \$1 \$2;
#X msg 80 157 \$2 \, \$1 1000;
#X obj 80 182 line;
#X obj 80 207 s gl_fr_b;
#X obj 209 37 inlet;
#X connect 0 0 1 0;
#X connect 0 0 2 1;
#X connect 1 0 2 0;
#X connect 2 0 3 0;
#X connect 3 0 4 0;
#X connect 4 0 5 0;
#X connect 6 0 1 1;
#X restore 1612 773 pd gliss_b;
#X msg 1612 747 550;
#X msg 1575 747 1.03;
#X msg 1679 746 0.4;
#N canvas 549 473 450 300 glisson_cloud 0;
#X obj 52 39 inlet;
#X obj 102 39 inlet;
#X obj 170 39 inlet;
#X obj 220 39 inlet;
#X obj 303 39 inlet;
#X obj 52 64 s gl_ar;
#X obj 102 89 s gl_al;
#X obj 170 64 s gl_br;
#X obj 220 89 s gl_bl;
#X obj 303 64 s gl_cl;
#X connect 0 0 5 0;
#X connect 1 0 6 0;
#X connect 2 0 7 0;
#X connect 3 0 8 0;
#X connect 4 0 9 0;
#X restore 1754 130 pd glisson_cloud;
#N canvas 617 362 450 300 glisson_grain_gliss 0;
#X obj 47 29 inlet;
#X msg 47 54 \$1 \, 10 4000;
#X obj 47 79 line;
#X obj 47 104 s gl_gr_dur;
#X obj 275 30 inlet;
#X obj 275 80 line;
#X obj 275 105 s gl_gr_dur;
#X msg 275 55 10 \, \$1 4000;
#X connect 0 0 1 0;
#X connect 1 0 2 0;
#X connect 2 0 3 0;
#X connect 4 0 7 0;
#X connect 5 0 6 0;
#X connect 7 0 5 0;
#X restore 1510 833 pd glisson_grain_gliss;
#N canvas 659 398 450 300 glisson_clarity_gliss 0;
#X obj 47 29 inlet;
#X obj 47 79 line;
#X obj 275 30 inlet;
#X obj 275 80 line;
#X obj 47 104 s gl_gr;
#X obj 275 105 s gl_gr;
#X msg 47 54 \$1 \, 100 1000;
#X msg 275 55 100 \, \$1 1000;
#X connect 0 0 6 0;
#X connect 1 0 4 0;
#X connect 2 0 7 0;
#X connect 3 0 5 0;
#X connect 6 0 1 0;
#X connect 7 0 3 0;
#X restore 1513 884 pd glisson_clarity_gliss;
#X text 451 687 GRANULAR FX;
#N canvas 717 203 450 300 gl_envelope 0;
#X obj 153 46 inlet;
#X obj 20 47 inlet;
#X obj 79 45 inlet;
#X obj 211 46 inlet;
#X msg 153 71 1;
#X obj 153 96 s gg_e;
#X msg 20 72 1;
#X obj 20 97 s gd_e;
#X obj 79 195 s gdv;
#X obj 211 193 s gr_mu;
#X obj 274 47 inlet;
#X msg 79 144 \$1 1000;
#X msg 274 72 2;
#X obj 274 97 s gl_e;
#X obj 334 46 inlet;
#X obj 334 96 s gl_e;
#X msg 334 71 3;
#X obj 79 169 line;
#X obj 211 168 line;
#X msg 211 143 377 \, \$1 12000;
#X connect 0 0 4 0;
#X connect 1 0 6 0;
#X connect 2 0 11 0;
#X connect 3 0 19 0;
#X connect 4 0 5 0;
#X connect 6 0 7 0;
#X connect 10 0 12 0;
#X connect 11 0 17 0;
#X connect 12 0 13 0;
#X connect 14 0 16 0;
#X connect 16 0 15 0;
#X connect 17 0 8 0;
#X connect 18 0 9 0;
#X connect 19 0 18 0;
#X restore 1662 715 pd gl_envelope;
#X obj 1662 693 bng 15 250 50 0 empty empty empty 17 7 0 10 #fcfcfc
#000000 #000000;
#X obj 1700 667 bng 15 250 50 0 empty empty empty 17 7 0 10 #fcfcfc
#000000 #000000;
#X obj 1738 693 bng 15 250 50 0 empty empty empty 17 7 0 10 #fcfcfc
#000000 #000000;
#X obj 1757 693 bng 15 250 50 0 empty empty empty 17 7 0 10 #fcfcfc
#000000 #000000;
#N canvas 184 107 670 427 glisson_motive_2 0;
#X obj 37 34 inlet;
#N canvas 0 50 450 250 (subpatch) 0;
#X array freqs_a2 100 float 3;
#A 0 465 471.357 477.714 490.428 490.428 496.785 503.142 503.142 503.142
503.142 503.142 503.142 515.857 541.285 541.285 541.285 566.713 566.713
579.427 604.855 604.855 617.569 630.284 642.998 655.712 681.14 681.14
681.14 681.14 681.14 693.854 706.568 719.282 744.711 757.425 757.425
770.139 808.281 808.281 833.709 842.185 850.661 859.138 884.566 922.708
941.779 960.85 986.279 998.993 1024.42 1024.42 1049.85 1049.85 1062.56
1062.56 1100.71 1138.85 1151.56 1176.99 1183.35 1215.13 1253.28 1253.28
1265.99 1291.42 1342.27 1342.27 1367.7 1380.42 1393.13 1405.84 1405.84
1418.56 1418.56 1418.56 1431.27 1443.99 1443.99 1456.7 1456.7 1469.41
1482.13 1488.49 1494.84 1520.27 1520.27 1520.27 1532.99 1532.99 1532.99
1532.99 1532.99 1532.99 1558.41 1558.41 1571.13 1571.13 1571.13 1571.13
1583.84;
#X coords 0 1800 100 20 200 140 1 0 0;
#X restore 289 32 graph;
#X obj 37 158 line;
#X obj 37 302 s gl_fr_a;
#X msg 105 71 1;
#X obj 105 96 s gl_on;
#N canvas 0 50 450 250 (subpatch) 0;
#X array freqs_b2 100 float 3;
#A 0 115.143 115.143 115.143 115.143 115.143 115.143 115.143 115.143
125.714 125.714 136.286 146.857 146.857 146.857 146.857 157.429 168
178.572 189.144 199.715 210.287 263.144 273.714 284.286 284.286 294.857
305.429 305.429 316 321.286 337.143 347.715 347.715 347.715 347.715
347.715 347.715 347.715 347.715 347.715 337.143 337.143 326.572 316
294.857 294.857 263.143 263.143 231.428 210.285 210.285 199.714 199.714
199.714 178.57 178.57 178.57 167.999 167.999 162.713 146.856 136.284
136.284 136.284 115.141 115.141 115.141 115.141 115.141 125.713 136.284
146.856 157.427 157.427 178.57 178.57 178.57 189.142 189.142 210.285
210.285 210.285 220.857 220.857 220.857 220.857 220.857 220.857 220.857
220.857 199.714 199.714 199.714 189.143 146.857 93.9989 83.4274 83.4274
62.2843 41.1412;
#X coords 0 1500 100 20 200 140 1 0 0;
#X restore 290 201 graph;
#X floatatom 37 183 5 0 0 0 - - - 0;
#X obj 82 358 s gl_fr_b;
#X msg 96 173 stop;
#X msg 37 133 0 \, 100 2900 270;
#X obj 37 272 tabread freqs_a2;
#X obj 113 301 tabread freqs_b2;
#X obj 176 95 s gl_gr_dur;
#X floatatom 113 326 5 0 0 0 - - - 0;
#X msg 176 70 19.7;
#X connect 0 0 10 0;
#X connect 0 0 15 0;
#X connect 2 0 7 0;
#X connect 4 0 5 0;
#X connect 7 0 11 0;
#X connect 7 0 12 0;
#X connect 9 0 2 0;
#X connect 10 0 2 0;
#X connect 11 0 3 0;
#X connect 12 0 8 0;
#X connect 12 0 14 0;
#X connect 15 0 13 0;
#X restore 1338 815 pd glisson_motive_2;
#X obj 1337 798 bng 15 250 50 0 empty empty empty 17 7 0 10 #fcfcfc
#000000 #000000;
#X msg 1510 807 130;
#X msg 1662 806 570;
#X msg 1512 859 50;
#N canvas 1470 98 450 300 glisson_computer 0;
#X obj 43 28 inlet;
#X obj 179 101 s gl_gr;
#X msg 98 77 166;
#X obj 98 102 s gl_fr_b;
#X obj 43 182 line;
#X obj 43 207 s gl_fr_a;
#X msg 179 76 100;
#X obj 254 101 s gl_gr_dur;
#X msg 254 76 1000;
#X msg 43 157 20 \, 1391 3500;
#X connect 0 0 6 0;
#X connect 0 0 2 0;
#X connect 0 0 9 0;
#X connect 0 0 8 0;
#X connect 2 0 3 0;
#X connect 4 0 5 0;
#X connect 6 0 1 0;
#X connect 8 0 7 0;
#X connect 9 0 4 0;
#X restore 1694 853 pd glisson_computer;
#X obj 1694 832 bng 15 250 50 0 empty empty empty 17 7 0 10 #fcfcfc
#000000 #000000;
#N canvas 1137 389 670 427 glisson_motive_3 0;
#X obj 37 34 inlet;
#N canvas 0 50 450 250 (subpatch) 0;
#X array freqs_a3 100 float 3;
#A 0 795.572 795.572 782.857 782.857 782.857 782.857 782.857 757.429
719.286 706.571 693.857 681.142 681.142 642.999 617.571 566.713 528.57
503.141 490.427 439.57 426.855 414.141 401.427 401.427 401.427 401.427
401.427 401.427 401.427 401.427 439.571 452.286 465 465 477.714 477.714
490.429 503.143 554.001 579.429 604.858 655.715 1151.57 1189.72 1215.15
1240.57 1240.57 1253.29 1253.29 1253.29 1278.72 1278.72 1278.72 1278.72
1278.72 1272.36 1266 1266 1266 1266 1266 1266 1266 1266 1253.29 1240.57
1227.86 1215.15 1202.43 1189.72 1177 1164.29 1151.57 1138.86 1126.14
1100.72 1088 1075.29 1062.57 1037.14 1037.14 1037.14 1037.14 1037.14
1049.86 1049.86 1075.29 1081.64 1088 1100.72 1113.43 1126.14 1138.86
1151.57 1151.57 1189.72 1202.43 1215.15 1240.57 1266;
#X coords 0 1800 100 20 200 140 1 0 0;
#X restore 289 32 graph;
#X obj 37 158 line;
#X obj 37 302 s gl_fr_a;
#X msg 105 71 1;
#X obj 105 96 s gl_on;
#N canvas 0 50 450 250 (subpatch) 0;
#X array freqs_b3 100 float 3;
#A 0 1045.43 1066.57 1066.57 1066.57 1066.57 1066.57 1066.57 1066.57
1066.57 1066.57 1066.57 1066.57 1066.57 1066.57 1066.57 1066.57 1066.57
1066.57 1066.57 1056 1056 1056 1056 1045.43 1034.86 1029.57 1024.29
1024.29 1024.29 1024.29 1024.29 1024.29 1024.29 1024.29 1019 1013.71
992.571 992.571 992.571 992.571 992.571 992.571 992.571 981.999 971.428
971.428 971.428 960.856 960.856 960.856 960.856 960.856 960.856 960.856
960.856 960.856 950.285 944.999 939.713 929.142 929.142 929.142 918.57
913.284 907.999 907.999 907.999 907.999 907.999 897.427 876.284 865.713
844.569 839.284 833.998 802.283 791.712 770.569 765.283 759.997 738.854
733.568 728.283 717.711 707.14 685.996 675.425 664.853 643.71 633.139
611.996 611.996 601.424 580.281 559.138 548.567 527.423 527.423 527.423
516.852;
#X coords 0 1500 100 20 200 140 1 0 0;
#X restore 290 201 graph;
#X floatatom 37 183 5 0 0 0 - - - 0;
#X obj 82 358 s gl_fr_b;
#X msg 96 173 stop;
#X obj 176 95 s gl_gr_dur;
#X floatatom 113 326 5 0 0 0 - - - 0;
#X msg 176 70 19.7;
#X obj 37 272 tabread freqs_a3;
#X obj 113 301 tabread freqs_b3;
#X msg 37 133 0 \, 100 6130 125;
#X connect 0 0 15 0;
#X connect 0 0 12 0;
#X connect 2 0 7 0;
#X connect 4 0 5 0;
#X connect 7 0 13 0;
#X connect 7 0 14 0;
#X connect 9 0 2 0;
#X connect 12 0 10 0;
#X connect 13 0 3 0;
#X connect 14 0 8 0;
#X connect 14 0 11 0;
#X connect 15 0 2 0;
#X restore 1338 861 pd glisson_motive_3;
#X obj 1338 840 bng 15 250 50 0 empty empty empty 17 7 0 10 #fcfcfc
#000000 #000000;
#N canvas 173 219 599 433 glisson_motive_4 0;
#X obj 37 34 inlet;
#X obj 37 158 line;
#X obj 37 302 s gl_fr_a;
#X msg 105 71 1;
#X obj 105 96 s gl_on;
#N canvas 0 50 450 250 (subpatch) 0;
#X array freqs_b4 100 float 3;
#A 0 347.717 379.431 411.146 495.718 516.861 548.576 601.434 612.005
654.291 696.577 728.292 760.007 791.721 812.864 823.436 839.293 855.15
876.293 897.437 918.58 929.151 939.723 960.866 971.437 982.009 992.58
1024.29 1024.29 1024.29 1024.29 1034.87 1040.15 1045.44 622.577 601.434
580.291 538.004 516.861 506.29 495.718 474.575 474.575 464.004 453.432
453.432 453.432 453.432 453.432 453.432 453.432 453.432 453.432 453.432
453.432 453.432 453.432 453.432 453.432 453.432 453.432 453.432 453.432
453.432 464.004 474.575 474.575 479.861 485.147 495.718 495.718 495.718
506.29 511.576 516.861 548.576 553.862 559.147 569.719 590.862 612.005
643.72 717.72 717.72 717.72 717.72 717.72 273.715 273.715 273.715 273.715
273.715 273.715 273.715 273.715 273.715 273.715 273.715 273.715 273.715
273.715;
#X coords 0 1500 100 20 200 140 1 0 0;
#X restore 290 201 graph;
#X floatatom 37 183 5 0 0 0 - - - 0;
#X obj 82 358 s gl_fr_b;
#X msg 96 173 stop;
#X obj 176 95 s gl_gr_dur;
#X floatatom 113 326 5 0 0 0 - - - 0;
#X msg 176 70 19.7;
#N canvas 0 50 450 250 (subpatch) 0;
#X array freqs_a4 100 float 3;
#A 0 1355 1355 1355 1355 1355 1355 1355 1367.71 1367.71 1405.86 1405.86
1418.57 1431.29 1456.71 1520.29 1558.43 1571.14 1596.57 1596.57 1622
1622 1622 1634.72 1660.14 1049.86 1049.86 1062.57 1088 1113.43 1138.86
1164.28 1164.28 1177 1177 1177 1189.71 1202.43 1202.43 1202.43 1202.43
1202.43 1202.43 1202.43 1202.43 1202.43 1202.43 1202.43 1202.43 1202.43
1202.43 1202.43 1202.43 1189.71 1189.71 553.996 566.71 592.139 604.853
630.282 630.282 655.71 681.139 719.282 731.997 731.997 757.425 757.425
770.14 770.14 770.14 770.14 770.14 770.14 770.14 770.14 757.425 757.425
757.425 757.425 1037.14 1037.14 1037.14 1037.14 1037.14 973.571 935.428
909.999 820.999 782.856 757.427 706.57 668.427 630.283 604.855 477.711
401.425 388.711 363.282 350.568 312.425;
#X coords 0 1800 100 20 200 140 1 0 0;
#X restore 289 32 graph;
#X obj 37 272 tabread freqs_a4;
#X obj 113 301 tabread freqs_b4;
#X msg 37 133 0 \, 100 5300 125;
#X connect 0 0 15 0;
#X connect 0 0 11 0;
#X connect 1 0 6 0;
#X connect 3 0 4 0;
#X connect 6 0 13 0;
#X connect 6 0 14 0;
#X connect 8 0 1 0;
#X connect 11 0 9 0;
#X connect 13 0 2 0;
#X connect 14 0 7 0;
#X connect 14 0 10 0;
#X connect 15 0 1 0;
#X restore 1338 909 pd glisson_motive_4;
#X obj 1338 891 bng 15 250 50 0 empty empty empty 17 7 0 10 #fcfcfc
#000000 #000000;
#X text 1714 830 good with live delay;
#X text 1337 931 500-130-100fm;
#N canvas 735 373 526 300 granulator_mode_1 0;
#X obj 10 10 inlet;
#X obj 10 70 s gr_mode;
#X obj 197 70 s gr_v;
#X msg 299 30 50;
#X obj 299 50 s gr_t;
#X obj 345 50 s gr_pb;
#X msg 137 30 498;
#X obj 137 50 s gr_dur;
#X msg 345 30 0.75;
#X obj 197 50 line;
#X msg 49 30 783.7;
#X obj 34 30 bng 15 250 50 0 empty empty empty 17 7 0 10 #fcfcfc #000000
#000000;
#X msg 10 50 1;
#X msg 197 30 0.1 \, 0.5 20000;
#X msg 398 30 278;
#X obj 398 50 s gr_t_a;
#X obj 49 50 s gr_mod_c;
#X connect 0 0 12 0;
#X connect 0 0 10 0;
#X connect 0 0 11 0;
#X connect 0 0 6 0;
#X connect 0 0 13 0;
#X connect 0 0 8 0;
#X connect 0 0 14 0;
#X connect 3 0 4 0;
#X connect 6 0 7 0;
#X connect 8 0 5 0;
#X connect 9 0 2 0;
#X connect 10 0 16 0;
#X connect 11 0 10 0;
#X connect 12 0 1 0;
#X connect 13 0 9 0;
#X connect 14 0 15 0;
#X restore 457 732 pd granulator_mode_1;
#X obj 457 712 bng 15 250 50 0 empty empty empty 17 7 0 10 #fcfcfc
#000000 #000000;
#X obj 616 714 bng 15 250 50 0 empty empty empty 17 7 0 10 #fcfcfc
#000000 #000000;
#X obj 732 713 bng 15 250 50 0 empty empty empty 17 7 0 10 #fcfcfc
#000000 #000000;
#N canvas 735 373 450 300 gr_vol_up_down 0;
#X obj 85 35 inlet;
#X obj 85 85 line;
#X obj 271 33 inlet;
#X obj 271 83 line;
#X obj 85 110 s gr_v;
#X obj 271 108 s gr_v;
#X msg 85 60 0 \, 0.5 3000;
#X msg 271 58 0.15 \, 0 6000;
#X connect 0 0 6 0;
#X connect 1 0 4 0;
#X connect 2 0 7 0;
#X connect 3 0 5 0;
#X connect 6 0 1 0;
#X connect 7 0 3 0;
#X restore 616 732 pd gr_vol_up_down;
#N canvas 735 373 162 203 granulator_saw 0;
#X obj 46 39 inlet;
#X obj 46 148 s gr_fr_other;
#X msg 69 86 1;
#X obj 69 111 s gr_wsh;
#X connect 0 0 1 0;
#X connect 0 0 2 0;
#X connect 2 0 3 0;
#X restore 767 778 pd granulator_saw;
#N canvas 735 373 172 204 granulator_tria 0;
#X obj 46 39 inlet;
#X obj 46 148 s gr_fr_other;
#X obj 69 111 s gr_wsh;
#X msg 69 86 0;
#X connect 0 0 1 0;
#X connect 0 0 3 0;
#X connect 3 0 2 0;
#X restore 915 828 pd granulator_tria;
#N canvas 735 373 450 300 granulator_square 0;
#X obj 46 39 inlet;
#X obj 46 148 s gr_fr_other;
#X obj 69 111 s gr_wsh;
#X msg 69 86 2;
#X connect 0 0 1 0;
#X connect 0 0 3 0;
#X connect 3 0 2 0;
#X restore 768 828 pd granulator_square;
#X msg 793 758 637;
#X msg 940 802 104;
#X msg 793 804 1230;
#N canvas 735 373 450 300 short_gr_dur 0;
#X obj 90 33 inlet;
#X obj 90 108 s gr_dur;
#X msg 90 58 57;
#X connect 0 0 2 0;
#X connect 2 0 1 0;
#X restore 769 733 pd short_gr_dur;
#X obj 769 713 bng 15 250 50 0 empty empty empty 17 7 0 10 #fcfcfc
#000000 #000000;
#X text 799 711 good with square;
#N canvas 26 602 679 300 gr_time_gliss 0;
#X obj 29 18 inlet;
#X msg 29 43 0;
#X obj 29 68 s gr_mode;
#X obj 126 78 line;
#X obj 126 103 s gr_t;
#X obj 267 100 line;
#X obj 267 125 s gr_t;
#X msg 128 53 10 \, 50 2000;
#X obj 264 41 delay 2000;
#X obj 397 13 inlet;
#X obj 410 125 line;
#X obj 410 150 s gr_t;
#X obj 540 104 line;
#X obj 540 129 s gr_t;
#X msg 412 100 50 \, 10 2000;
#X msg 540 79 500 \, 50 8000;
#X msg 267 75 50 \, 500 8000;
#X obj 410 74 delay 8000;
#X text 496 215 time total: 10 sec;
#X connect 0 0 1 0;
#X connect 0 0 7 0;
#X connect 0 0 8 0;
#X connect 1 0 2 0;
#X connect 3 0 4 0;
#X connect 5 0 6 0;
#X connect 7 0 3 0;
#X connect 8 0 16 0;
#X connect 9 0 15 0;
#X connect 9 0 1 0;
#X connect 9 0 17 0;
#X connect 10 0 11 0;
#X connect 12 0 13 0;
#X connect 14 0 10 0;
#X connect 15 0 12 0;
#X connect 16 0 5 0;
#X connect 17 0 14 0;
#X restore 645 776 pd gr_time_gliss;
#X obj 645 759 bng 15 250 50 0 empty empty empty 17 7 0 10 #fcfcfc
#000000 #000000;
#N canvas 697 305 450 300 granulator_mod_gliss 0;
#X obj 35 28 inlet;
#X obj 35 78 line;
#X obj 34 229 s gr_d;
#X obj 165 26 inlet;
#X obj 165 76 line;
#X obj 166 236 s gr_m;
#X floatatom 35 103 5 0 0 0 - - - 0;
#X msg 35 53 0 \, \$1 5000 0.001;
#X floatatom 165 101 5 0 0 0 - - - 0;
#X msg 165 51 0 \, \$1 10000 7;
#X connect 0 0 7 0;
#X connect 1 0 2 0;
#X connect 1 0 6 0;
#X connect 3 0 9 0;
#X connect 4 0 5 0;
#X connect 4 0 8 0;
#X connect 7 0 1 0;
#X connect 9 0 4 0;
#X restore 446 785 pd granulator_mod_gliss;
#N canvas 735 373 450 300 granulator_sine 0;
#X obj 46 39 inlet;
#X obj 46 148 s gr_fr_sine;
#X connect 0 0 1 0;
#X restore 913 780 pd granulator_sine;
#X msg 940 752 415;
#N canvas 735 373 450 300 granulator_phase 0;
#X obj 26 56 inlet;
#X obj 113 56 inlet;
#X obj 188 56 inlet;
#X obj 26 81 s gr_mod_c;
#X obj 113 81 s gr_m;
#X obj 188 81 s gr_d;
#X connect 0 0 3 0;
#X connect 1 0 4 0;
#X connect 2 0 5 0;
#X restore 498 838 pd granulator_phase;
#X msg 497 810 571;
#X msg 561 812 216;
#X msg 628 811 0.5;
#X msg 446 758 0.5;
#X msg 604 760 331;
#X msg 153 684 2000;
#X obj 8 2 bng 25 250 50 0 empty empty start 17 7 0 10 #fcfcfc #000000
#000000;
#N canvas 735 373 250 189 fm_cresc_1_10sec 0;
#X obj 44 32 inlet;
#X msg 78 65 144;
#X obj 78 90 s fm_carrier;
#X msg 21 127 10000;
#X msg 169 65 678;
#X obj 169 90 s fm_mod;
#X msg 43 67 1;
#X obj 43 90 s fm;
#X obj 21 153 outlet;
#X connect 0 0 6 0;
#X connect 0 0 1 0;
#X connect 0 0 3 0;
#X connect 0 0 4 0;
#X connect 1 0 2 0;
#X connect 3 0 8 0;
#X connect 4 0 5 0;
#X connect 6 0 7 0;
#X restore 8 57 pd fm_cresc_1_10sec;
#X obj 51 34 delay 10000;
#N canvas 735 373 298 282 fm_dim_1_2sec 0;
#X obj 44 32 inlet;
#X obj 44 89 line;
#X floatatom 119 109 5 0 0 0 - - - 0;
#X obj 44 114 s fm_v;
#X msg 44 64 0.4 \, 0.2 2000;
#X connect 0 0 4 0;
#X connect 1 0 2 0;
#X connect 1 0 3 0;
#X connect 4 0 1 0;
#X restore 21 81 pd fm_dim_1_2sec;
#X obj 24 104 delay 3000;
#X obj 38 127 delay 3000;
#X obj 51 151 delay 2000;
#X obj 56 179 delay 2000;
#X obj 70 203 delay 2000;
#N canvas 735 373 450 300 fm_mod1 0;
#X obj 37 37 inlet;
#X obj 37 171 s fm_mod;
#X obj 37 88 line;
#X msg 37 62 678 \, 621.3 2000;
#X obj 216 57 delay 1000;
#X obj 216 107 line;
#X obj 216 132 s fm_carrier;
#X msg 216 82 144 \, 166 2000;
#X text 235 206 time total: 3000;
#X msg 450 183 100;
#X obj 450 208 s ld_rt;
#X connect 0 0 3 0;
#X connect 0 0 4 0;
#X connect 2 0 1 0;
#X connect 3 0 2 0;
#X connect 4 0 7 0;
#X connect 5 0 6 0;
#X connect 7 0 5 0;
#X connect 9 0 10 0;
#X restore 70 228 pd fm_mod1;
#X obj 40 250 delay 4000;
#N canvas 735 373 450 300 fm_yakut 0;
#X obj 37 37 inlet;
#X msg 37 62 1;
#X obj 37 87 s fm_y;
#X msg 113 62 378;
#X obj 113 87 s fm_d_b;
#X connect 0 0 1 0;
#X connect 0 0 3 0;
#X connect 1 0 2 0;
#X connect 3 0 4 0;
#X restore 40 275 pd fm_yakut;
#X obj 9 276 bng 15 250 50 0 empty empty empty 17 7 0 10 #fcfcfc #000000
#000000;
#N canvas 1027 387 541 300 granulator_sig 0;
#X msg 35 112 118 \, 67 1000;
#X obj 35 137 line;
#X obj 35 162 s gr_dur;
#X obj 129 137 s gr_mode;
#X msg 129 112 0;
#X msg 198 112 0.025;
#X obj 253 137 line;
#X obj 253 162 s gr_v;
#X obj 347 137 line;
#X obj 198 137 s gr_pb;
#X msg 153 193 67;
#X obj 153 218 s gr_t;
#X obj 347 162 s gr_fr_sine;
#X obj 35 4 inlet;
#X obj 406 17 * 0.945;
#X msg 253 112 1 \, 0.1 1500;
#X floatatom 406 42 5 0 0 0 - - - 0;
#X obj 347 76 pack \$1 \$2;
#X msg 347 112 \$2 \, \$1 1500;
#X connect 0 0 1 0;
#X connect 1 0 2 0;
#X connect 4 0 3 0;
#X connect 5 0 9 0;
#X connect 6 0 7 0;
#X connect 8 0 12 0;
#X connect 10 0 11 0;
#X connect 13 0 0 0;
#X connect 13 0 4 0;
#X connect 13 0 5 0;
#X connect 13 0 15 0;
#X connect 13 0 10 0;
#X connect 13 0 14 0;
#X connect 13 0 17 1;
#X connect 14 0 16 0;
#X connect 14 0 17 0;
#X connect 15 0 6 0;
#X connect 17 0 18 0;
#X connect 18 0 8 0;
#X restore 458 883 pd granulator_sig;
#N canvas 735 373 600 300 granulator_sig2 0;
#X msg 35 112 118 \, 67 1000;
#X obj 35 137 line;
#X obj 35 162 s gr_dur;
#X obj 129 137 s gr_mode;
#X msg 129 112 0;
#X msg 198 112 0.025;
#X obj 253 137 line;
#X obj 253 162 s gr_v;
#X obj 356 137 line;
#X obj 198 137 s gr_pb;
#X msg 153 193 67;
#X obj 153 218 s gr_t;
#X obj 35 4 inlet;
#X msg 261 193 714;
#X obj 261 218 s gr_mod_c;
#X msg 207 193 0.43;
#X obj 207 218 s gr_d;
#X obj 356 162 s gr_m;
#X msg 356 112 705 \, 2181 5000 40;
#X msg 253 112 0.5 \, 0.01 5100;
#X connect 0 0 1 0;
#X connect 1 0 2 0;
#X connect 4 0 3 0;
#X connect 5 0 9 0;
#X connect 6 0 7 0;
#X connect 8 0 17 0;
#X connect 10 0 11 0;
#X connect 12 0 0 0;
#X connect 12 0 4 0;
#X connect 12 0 5 0;
#X connect 12 0 19 0;
#X connect 12 0 18 0;
#X connect 12 0 10 0;
#X connect 12 0 13 0;
#X connect 12 0 15 0;
#X connect 13 0 14 0;
#X connect 15 0 16 0;
#X connect 18 0 8 0;
#X connect 19 0 6 0;
#X restore 619 884 pd granulator_sig2;
#X obj 619 863 bng 15 250 50 0 empty empty empty 17 7 0 10 #fcfcfc
#000000 #000000;
#X obj 333 133 delay 1000;
#X obj 339 157 delay 400;
#X obj 332 182 delay 100;
#X obj 148 33 delay 9000;
#X obj 59 297 delay 7000;
#X msg 409 133 550;
#X msg 408 157 510;
#X msg 401 182 470;
#N canvas 735 373 134 118 yakut_off 0;
#X obj 42 28 inlet;
#X msg 42 53 0;
#X obj 42 78 s fm_y;
#X connect 0 0 1 0;
#X connect 1 0 2 0;
#X restore 912 236 pd yakut_off;
#X obj 151 277 bng 15 250 50 0 empty empty empty 17 7 0 10 #fcfcfc
#000000 #000000;
#X msg 182 298 166;
#X msg 151 298 196;
#X obj 706 40 bng 15 250 50 0 empty empty empty 17 7 0 10 #fcfcfc #000000
#000000;
#X msg 706 80 673;
#X msg 723 103 440;
#X msg 738 128 551;
#X msg 751 152 317;
#X msg 827 101 617;
#X msg 842 152 851;
#X msg 848 177 273;
#X msg 835 125 1040;
#X msg 765 177 115;
#X obj 734 80 delay 1000;
#X obj 758 103 del 1000;
#X obj 772 126 del 500;
#X obj 782 152 del 1000;
#X obj 830 76 del 2500;
#X obj 874 125 del 400;
#X obj 862 102 del 300;
#N canvas 1117 403 207 268 gr_dur_change 0;
#X obj 46 34 inlet;
#X obj 90 61 inlet;
#X obj 134 93 inlet;
#X obj 46 144 pack \$1 \$2 \$3;
#X msg 46 169 \$1 \, \$2 \$3;
#X obj 46 194 line;
#X obj 46 219 s gr_dur;
#X connect 0 0 3 0;
#X connect 1 0 3 1;
#X connect 2 0 3 2;
#X connect 3 0 4 0;
#X connect 4 0 5 0;
#X connect 5 0 6 0;
#X restore 768 869 pd gr_dur_change;
#X msg 533 217 236;
#X msg 564 217 67;
#X msg 595 217 2000;
#X obj 643 62 del 1500;
#X obj 451 82 del 3500;
#X msg 534 249 35;
#X msg 596 249 500;
#X msg 565 249 1300;
#X obj 65 320 delay 14000;
#X obj 65 345 delay 1000;
#N canvas 735 373 450 300 gr_params 0;
#X msg 63 93 0.5;
#X obj 63 118 s gr_v;
#X obj 63 38 inlet;
#X msg 126 58 1;
#X obj 126 83 s gr_mode;
#X connect 0 0 1 0;
#X connect 2 0 0 0;
#X connect 2 0 3 0;
#X connect 3 0 4 0;
#X restore 810 55 pd gr_params;
#X obj 883 149 del 300;
#X obj 892 241 bng 15 250 50 0 empty empty empty 17 7 0 10 #fcfcfc
#000000 #000000;
#X obj 886 170 bng 15 250 50 0 empty empty empty 17 7 0 10 #fcfcfc
#000000 #000000;
#X obj 886 214 delay 2000;
#N canvas 801 248 767 412 gr_fiddle 0;
#X obj 62 33 inlet;
#X obj 62 79 metro 200;
#X obj 206 79 metro 200;
#X obj 160 170 +;
#X obj 229 198 b;
#X obj 94 335 line;
#X obj 94 283 pack \$1 \$2;
#X floatatom 85 225 26 0 0 0 - - - 0;
#X obj 62 113 random 18255;
#X obj 206 113 random 18255;
#X obj 206 138 / 100000;
#X obj 417 174 +;
#X obj 486 202 b;
#X floatatom 342 229 26 0 0 0 - - - 0;
#X obj 319 117 random 18255;
#X obj 463 117 random 18255;
#X obj 463 142 / 100000;
#X obj 94 360 s gr_fr_other;
#X obj 314 34 random 1000;
#X msg 94 310 \$1 \, \$2 1000 50;
#X obj 408 343 s gr_mode;
#X msg 412 315 0;
#X msg 615 181 39;
#X obj 615 206 s gr_dur;
#X connect 0 0 1 0;
#X connect 0 0 2 0;
#X connect 0 0 21 0;
#X connect 0 0 22 0;
#X connect 1 0 8 0;
#X connect 1 0 14 0;
#X connect 2 0 9 0;
#X connect 2 0 15 0;
#X connect 3 0 4 0;
#X connect 3 0 7 0;
#X connect 4 0 18 0;
#X connect 5 0 17 0;
#X connect 6 0 19 0;
#X connect 7 0 6 0;
#X connect 8 0 3 0;
#X connect 9 0 10 0;
#X connect 10 0 3 1;
#X connect 11 0 12 0;
#X connect 11 0 13 0;
#X connect 13 0 6 1;
#X connect 14 0 11 0;
#X connect 15 0 16 0;
#X connect 16 0 11 1;
#X connect 18 0 2 1;
#X connect 18 0 1 1;
#X connect 19 0 5 0;
#X connect 21 0 20 0;
#X connect 22 0 23 0;
#X restore 938 317 pd gr_fiddle;
#X msg 938 290 1;
#X obj 754 756 bng 15 250 50 0 empty empty empty 17 7 0 10 #fcfcfc
#000000 #000000;
#X msg 975 290 0;
#X msg 892 286 4000;
#X obj 938 343 delay 4000;
#N canvas 735 373 450 300 gr_accel 0;
#X obj 37 37 inlet;
#X obj 63 133 line;
#X msg 63 108 67 \, 39 2000;
#X obj 63 175 s gr_t;
#X obj 164 83 delay 2000;
#X msg 164 108 39 \, 10 500;
#X obj 164 133 line;
#X connect 0 0 2 0;
#X connect 0 0 4 0;
#X connect 1 0 3 0;
#X connect 2 0 1 0;
#X connect 4 0 5 0;
#X connect 5 0 6 0;
#X connect 6 0 3 0;
#X restore 873 367 pd gr_accel;
#X obj 963 366 delay 3000;
#X msg 241 4 144;
#X msg 275 27 184;
#X msg 295 53 224;
#X msg 315 82 264;
#X msg 218 297 6000;
#X msg 275 4 1700;
#N canvas 735 373 443 218 gr_tria_gliss 0;
#X obj 71 57 inlet;
#X obj 71 107 line;
#X obj 71 132 s gr_fr_other;
#X msg 219 82 0;
#X obj 219 107 s gr_mode;
#X obj 290 107 s gr_t;
#X obj 148 42 bng 15 250 50 0 empty empty empty 17 7 0 10 #fcfcfc #000000
#000000;
#X msg 290 82 30;
#X msg 71 82 273 \, 20000 1500 50;
#X connect 0 0 8 0;
#X connect 0 0 3 0;
#X connect 0 0 7 0;
#X connect 1 0 2 0;
#X connect 3 0 4 0;
#X connect 6 0 8 0;
#X connect 6 0 7 0;
#X connect 6 0 3 0;
#X connect 7 0 5 0;
#X connect 8 0 1 0;
#X restore 982 261 pd gr_tria_gliss;
#X obj 892 261 delay 4000;
#X obj 1007 238 del 2500;
#X obj 963 391 delay 12000;
#X obj 963 416 delay 2000;
#X obj 963 441 delay 1000;
#X obj 918 394 bng 15 250 50 0 empty empty empty 17 7 0 10 #fcfcfc
#000000 #000000;
#X obj 963 466 delay 2000;
#X obj 963 491 delay 5000;
#X msg 881 424 0;
#N canvas 735 373 487 300 gr_params_2 0;
#X obj 81 77 inlet;
#X msg 85 125 1;
#X obj 85 150 s gr_mode;
#X msg 154 125 4301;
#X obj 154 150 s gr_fr_other;
#X obj 249 192 s gr_dur;
#X msg 357 125 790;
#X obj 357 150 s gr_t_a;
#X msg 249 126 39 \, 15 7000;
#X obj 249 151 line;
#X connect 0 0 8 0;
#X connect 0 0 3 0;
#X connect 0 0 1 0;
#X connect 0 0 6 0;
#X connect 1 0 2 0;
#X connect 3 0 4 0;
#X connect 6 0 7 0;
#X connect 8 0 9 0;
#X connect 9 0 5 0;
#X restore 896 868 pd gr_params_2;
#X obj 1043 438 delay 2000;
#X msg 1049 473 500;
#X msg 1079 473 360;
#X msg 1109 473 30000;
#N canvas 272 395 450 181 glisson_cresc 0;
#X obj 37 37 inlet;
#X obj 37 87 s gl_fr_a;
#X obj 208 92 s gl_fr_b;
#X obj 208 41 inlet;
#X obj 309 41 inlet;
#X obj 309 66 sel 0;
#X obj 309 116 s gl_gr_dur;
#X msg 309 91 3000;
#X connect 0 0 1 0;
#X connect 3 0 2 0;
#X connect 4 0 5 0;
#X connect 5 0 7 0;
#X connect 5 1 6 0;
#X connect 7 0 6 0;
#X restore 1203 313 pd glisson_cresc;
#X obj 1110 69 bng 15 250 50 0 empty empty empty 17 7 0 10 #fcfcfc
#000000 #000000;
#X msg 1074 108 257;
#X msg 1103 108 563;
#X obj 1139 84 delay 4800;
#X obj 1170 108 delay 2400;
#X obj 1203 137 delay 1300;
#X obj 1234 162 delay 1200;
#X msg 1234 187 124;
#X obj 1266 187 delay 1100;
#X obj 1296 212 delay 1000;
#X msg 1363 262 800;
#X obj 1328 237 delay 900;
#X msg 1328 262 1211;
#X obj 1413 205 delay 1200;
#X msg 1448 230 900;
#X msg 1531 231 300;
#X obj 1496 206 delay 1000;
#X obj 1432 137 delay 1000;
#X msg 1467 162 500;
#X msg 1384 162 200;
#X obj 1349 137 delay 800;
#X obj 1369 81 delay 1000;
#X obj 1286 81 delay 800;
#X obj 1433 269 delay 1000;
#X msg 1468 294 1000;
#X msg 1286 106 720;
#X msg 1404 106 250;
#X msg 1321 106 150;
#X obj 1324 24 delay 2000;
#N canvas 393 212 560 300 gl_gliss_a 0;
#X obj 37 37 inlet;
#X obj 37 87 line;
#X obj 37 112 s gl_fr_a;
#X msg 170 62 1182;
#X obj 170 87 s gl_fr_b;
#X msg 249 64 2000;
#X obj 249 89 s gl_gr_dur;
#X msg 37 62 58 \, 4340 2000 100;
#X obj 159 161 delay 2000;
#X obj 178 219 line;
#X obj 178 244 s gl_fr_a;
#X obj 323 166 line;
#X msg 178 193 2000 \, 350 3000 120;
#X obj 323 191 s fm_v;
#X msg 323 141 0.1 \, 0 100;
#X connect 0 0 7 0;
#X connect 0 0 3 0;
#X connect 0 0 5 0;
#X connect 0 0 8 0;
#X connect 0 0 14 0;
#X connect 1 0 2 0;
#X connect 3 0 4 0;
#X connect 5 0 6 0;
#X connect 7 0 1 0;
#X connect 8 0 12 0;
#X connect 9 0 10 0;
#X connect 11 0 13 0;
#X connect 12 0 9 0;
#X connect 14 0 11 0;
#X restore 1324 49 pd gl_gliss_a;
#X obj 1267 34 bng 15 250 50 0 empty empty empty 17 7 0 10 #fcfcfc
#000000 #000000;
#X msg 1864 97 100;
#X msg 1833 97 40;
#X obj 1806 64 bng 15 250 50 0 empty empty empty 17 7 0 10 #fcfcfc
#000000 #000000;
#X msg 1768 97 100;
#X msg 1738 97 600;
#X msg 1799 97 2500;
#N canvas 574 160 599 559 glisson_read_cloud 0;
#X obj 35 37 inlet;
#X msg 35 62 1300;
#X obj 35 87 s gl_gr_dur;
#X msg 119 62 1;
#X obj 119 87 s gl_on;
#X msg 175 63 1;
#X obj 175 88 s gl_r_on;
#X msg 252 63 230;
#X obj 252 88 s gl_read;
#X obj 61 112 delay 5000;
#X obj 61 176 line;
#X obj 61 201 s gl_gr;
#X obj 95 292 line;
#X obj 95 317 s gl_read;
#X obj 222 300 line;
#X obj 222 325 s gl_gr_dur;
#X obj 352 324 line;
#X obj 352 349 s gl_duty;
#X msg 222 275 1300 \, 392 7500;
#X msg 352 299 1 \, 0.369 8000;
#X msg 324 63 0;
#X obj 324 88 s gl_gr;
#X obj 222 242 delay 400;
#X obj 352 262 delay 100;
#X obj 126 393 line;
#X msg 126 368 2500 \, 12279 4000;
#X obj 126 418 s gl_br;
#X msg 61 151 0 \, 100 6000;
#X obj 120 236 delay 6000;
#X msg 95 267 230 \, 67 100 10;
#X obj 360 439 line;
#X obj 360 464 s gl_al;
#X text 433 519 time total: 20 sec;
#X obj 370 385 delay 12000;
#X msg 360 414 17300 \, 40 5500;
#X obj 421 88 delay 500;
#X msg 421 113 0.7 \, 1 12000;
#X obj 421 138 line;
#X obj 421 163 s gdv;
#X connect 0 0 1 0;
#X connect 0 0 3 0;
#X connect 0 0 5 0;
#X connect 0 0 7 0;
#X connect 0 0 20 0;
#X connect 0 0 9 0;
#X connect 1 0 2 0;
#X connect 3 0 4 0;
#X connect 5 0 6 0;
#X connect 7 0 8 0;
#X connect 9 0 27 0;
#X connect 9 0 28 0;
#X connect 10 0 11 0;
#X connect 12 0 13 0;
#X connect 14 0 15 0;
#X connect 16 0 17 0;
#X connect 18 0 14 0;
#X connect 19 0 16 0;
#X connect 20 0 21 0;
#X connect 22 0 18 0;
#X connect 22 0 23 0;
#X connect 23 0 19 0;
#X connect 23 0 33 0;
#X connect 24 0 26 0;
#X connect 25 0 24 0;
#X connect 27 0 10 0;
#X connect 28 0 22 0;
#X connect 28 0 29 0;
#X connect 28 0 25 0;
#X connect 28 0 35 0;
#X connect 29 0 12 0;
#X connect 30 0 31 0;
#X connect 33 0 34 0;
#X connect 34 0 30 0;
#X connect 35 0 36 0;
#X connect 36 0 37 0;
#X connect 37 0 38 0;
#X restore 1722 156 pd glisson_read_cloud;
#X obj 1727 133 bng 15 250 50 0 empty empty empty 17 7 0 10 #fcfcfc
#000000 #000000;
#N canvas 1267 327 450 300 cloud_off 0;
#X obj 90 23 inlet;
#X msg 90 48 0;
#X obj 90 73 s gl_r_on;
#X obj 176 79 line;
#X obj 176 104 s gl_gr;
#X msg 282 57 1 500;
#X msg 176 54 100 \, 0 400;
#X obj 282 82 line;
#X obj 282 107 s gl_duty;
#X obj 364 68 s gl_gr_dur;
#X msg 364 43 1000;
#X connect 0 0 1 0;
#X connect 0 0 6 0;
#X connect 0 0 10 0;
#X connect 1 0 2 0;
#X connect 3 0 4 0;
#X connect 5 0 7 0;
#X connect 6 0 3 0;
#X connect 7 0 8 0;
#X connect 10 0 9 0;
#X restore 1655 236 pd cloud_off;
#N canvas 735 373 450 300 glisson_duty_up 0;
#X obj 99 68 inlet;
#X obj 99 118 line;
#X obj 99 143 s gl_duty;
#X obj 246 66 inlet;
#X obj 246 116 line;
#X obj 246 141 s gl_gr_dur;
#X msg 246 91 1000 \, 5000 2000;
#X msg 99 94 0.369 \, 1 3000;
#X connect 0 0 7 0;
#X connect 1 0 2 0;
#X connect 3 0 6 0;
#X connect 4 0 5 0;
#X connect 6 0 4 0;
#X connect 7 0 1 0;
#X restore 1775 257 pd glisson_duty_up;
#X obj 1492 44 delay 5000;
#X obj 1760 176 delay 29000;
#X obj 1492 69 delay 1000;
#X msg 1170 136 110;
#X msg 1203 162 160;
#X msg 1266 212 215;
#X msg 1296 237 181;
#X msg 1139 108 140;
#X msg 1433 294 546;
#X msg 1413 230 509;
#X msg 1496 231 470;
#X msg 1349 162 815;
#X msg 1432 162 803;
#X msg 1369 106 938;
#X obj 1769 216 delay 4000;
#X obj 1668 458 delay 6500;
#X obj 1668 358 delay 3500;
#X obj 1668 383 delay 3500;
#X obj 1668 408 delay 3500;
#X obj 1668 433 delay 3500;
#X msg 1685 310 0;
#X obj 1685 330 s gl_on;
#X obj 1760 196 bng 15 250 50 0 empty empty empty 17 7 0 10 #fcfcfc
#000000 #000000;
#X msg 1771 335 1;
#X msg 1719 662 150;
#X obj 1771 310 delay 100;
#X obj 1668 290 delay 6500;
#N canvas 735 373 450 300 env_gliss 0;
#X obj 100 34 inlet;
#X msg 100 59 150 \, 350 4000;
#X obj 100 84 line;
#X obj 100 109 s gr_mu;
#X connect 0 0 1 0;
#X connect 1 0 2 0;
#X connect 2 0 3 0;
#X restore 1749 458 pd env_gliss;
#N canvas 659 354 450 300 final_fm_bass 0;
#X obj 61 62 inlet;
#X obj 61 112 line;
#X obj 61 137 s fm_carrier;
#X obj 179 111 line;
#X obj 265 108 line;
#X obj 265 133 s fm_d;
#X obj 179 136 s fm_mod;
#X obj 351 39 line;
#X obj 351 64 s fm_v;
#X msg 61 87 0 \, 500 2000;
#X msg 179 86 0 \, 130 1000;
#X msg 265 83 0 \, 100 1000;
#X msg 351 14 0 \, 0.2 1000;
#X connect 0 0 9 0;
#X connect 0 0 10 0;
#X connect 0 0 11 0;
#X connect 0 0 12 0;
#X connect 1 0 2 0;
#X connect 3 0 6 0;
#X connect 4 0 5 0;
#X connect 7 0 8 0;
#X connect 9 0 1 0;
#X connect 10 0 3 0;
#X connect 11 0 4 0;
#X connect 12 0 7 0;
#X restore 19 901 pd final_fm_bass;
#X obj 19 882 bng 15 250 50 0 empty empty empty 17 7 0 10 #fcfcfc #000000
#000000;
#X msg 249 684 6000;
#X obj 1668 488 delay 6000;
#N canvas 735 373 450 300 prep 0;
#X obj 97 79 inlet;
#X obj 97 252 s gr_fr_sine;
#X msg 195 108 136;
#X obj 195 133 s gr_t_a;
#X obj 56 194 bng 15 250 50 0 empty empty empty 17 7 0 10 #fcfcfc #000000
#000000;
#X obj 283 132 s gr_dur;
#X obj 97 104 delay 1000;
#X msg 283 107 378;
#X msg 97 194 714 \, 440 1000;
#X obj 97 219 line;
#X connect 0 0 2 0;
#X connect 0 0 7 0;
#X connect 0 0 6 0;
#X connect 2 0 3 0;
#X connect 4 0 8 0;
#X connect 6 0 8 0;
#X connect 6 0 4 0;
#X connect 7 0 5 0;
#X connect 8 0 9 0;
#X connect 9 0 1 0;
#X restore 328 41 pd prep;
#X obj 328 16 del 5500;
#X obj 1085 498 delay 3000;
#X obj 157 240 delay 2000;
#X msg 297 605 6000;
#X obj 1105 705 bng 15 250 50 0 empty empty empty 17 7 0 10 #fcfcfc
#000000 #000000;
#X obj 1088 548 delay 7000;
#X obj 1110 242 delay 30000;
#X obj 1745 515 delay 6000;
#X obj 1745 540 delay 5000;
#X obj 1830 567 s gl_gr_dur;
#X msg 1830 542 5000;
#X msg 358 683 5000;
#X obj 1755 583 delay 3000;
#X obj 1628 202 delay 10000;
#X obj 1019 202 bng 15 250 50 0 empty empty empty 17 7 0 10 #fcfcfc
#000000 #000000;
#N canvas 982 195 507 300 gr_gr_time_change 0;
#X obj 69 65 inlet;
#X msg 69 110 756.5 \, 135 100;
#X obj 69 135 line;
#X obj 69 177 s gr_t_a;
#X obj 222 85 delay 2000;
#X msg 222 110 1;
#X obj 222 135 s gr_mode;
#X msg 326 116 15 \, 39 3000;
#X obj 326 141 line;
#X obj 326 166 s gr_dur;
#X msg 437 78 931;
#X obj 437 103 s ld_rt;
#X connect 0 0 1 0;
#X connect 0 0 4 0;
#X connect 0 0 10 0;
#X connect 1 0 2 0;
#X connect 2 0 3 0;
#X connect 4 0 5 0;
#X connect 4 0 7 0;
#X connect 5 0 6 0;
#X connect 7 0 8 0;
#X connect 8 0 9 0;
#X connect 10 0 11 0;
#X restore 1512 295 pd gr_gr_time_change;
#X obj 1589 255 del 8000;
#N canvas 735 373 450 300 fm_vol_cresc 0;
#X obj 47 64 inlet;
#X obj 47 114 line;
#X obj 47 139 s fm_v;
#X obj 265 64 inlet;
#X obj 265 114 line;
#X obj 265 139 s fm_v;
#X msg 47 89 0.01 \, 0.15 3000;
#X msg 265 89 0.15 \, 0.01 3000;
#X connect 0 0 6 0;
#X connect 1 0 2 0;
#X connect 3 0 7 0;
#X connect 4 0 5 0;
#X connect 6 0 1 0;
#X connect 7 0 4 0;
#X restore 1130 524 pd fm_vol_cresc;
#X obj 1088 573 delay 4000;
#N canvas 735 373 461 245 gr_background 0;
#X obj 87 31 inlet;
#X obj 87 81 line;
#X obj 87 106 s gr_v;
#X obj 267 33 inlet;
#X obj 267 83 line;
#X obj 267 108 s gr_v;
#X obj 342 171 s gr_t_a;
#X msg 342 108 125 \, 49 1000;
#X obj 342 133 line;
#X msg 267 58 0.035 \, 0.15 4000;
#X msg 87 56 0.15 \, 0 1000;
#X connect 0 0 10 0;
#X connect 1 0 2 0;
#X connect 3 0 9 0;
#X connect 3 0 7 0;
#X connect 4 0 5 0;
#X connect 7 0 8 0;
#X connect 8 0 6 0;
#X connect 9 0 4 0;
#X connect 10 0 1 0;
#X restore 1538 327 pd gr_background;
#X obj 1662 524 del 1000;
#X msg 1361 444 673;
#X msg 1349 420 440;
#X msg 1342 397 551;
#X msg 1283 473 317;
#X msg 1249 422 617;
#X msg 1210 376 851;
#X msg 1357 472 273;
#X msg 1229 398 1040;
#X msg 1260 447 115;
#X obj 1243 375 delay 1000;
#X obj 1267 398 del 1000;
#X obj 1281 421 del 500;
#X obj 1291 447 del 1000;
#X obj 1339 371 del 2500;
#X obj 1383 420 del 400;
#X obj 1371 397 del 300;
#X obj 1392 444 del 300;
#X obj 1210 348 bng 15 250 50 0 empty empty empty 17 7 0 10 #fcfcfc
#000000 #000000;
#X obj 1392 470 del 1000;
#N canvas 610 391 450 300 gr_gliss_2 0;
#X obj 37 37 inlet;
#X obj 37 128 line;
#X obj 37 153 s gr_fr_other;
#X msg 172 103 0;
#X obj 172 128 s gr_mode;
#X obj 243 128 s gr_t;
#X msg 243 103 30;
#X obj 205 49 bng 15 250 50 0 empty empty empty 17 7 0 10 #fcfcfc #000000
#000000;
#X msg 37 103 273 \, 12000 1500 80;
#X connect 0 0 8 0;
#X connect 0 0 3 0;
#X connect 0 0 6 0;
#X connect 1 0 2 0;
#X connect 3 0 4 0;
#X connect 6 0 5 0;
#X connect 7 0 8 0;
#X connect 7 0 3 0;
#X connect 7 0 6 0;
#X connect 8 0 1 0;
#X restore 1392 495 pd gr_gliss_2;
#X obj 1095 308 delay 1000;
#N canvas 735 373 760 300 gr_time_gliss_2 0;
#X obj 61 40 inlet;
#X obj 74 152 line;
#X obj 74 177 s gr_t;
#X obj 204 131 line;
#X obj 204 156 s gr_t;
#X obj 266 27 bng 15 250 50 0 empty empty empty 17 7 0 10 #fcfcfc #000000
#000000;
#X msg 204 106 30 \, 70 1000;
#X obj 74 101 delay 1000;
#X obj 305 130 line;
#X obj 305 155 s gr_fr_other;
#X msg 76 127 70 \, 500 3000;
#X obj 441 81 delay 4000;
#X msg 441 106 1;
#X obj 441 131 s gr_mode;
#X msg 305 105 12000 \, 20000 4000;
#X msg 529 135 39 \, 15 1000;
#X obj 529 160 line;
#X obj 529 185 s gr_dur;
#X obj 624 160 line;
#X msg 624 135 135 \, 5000 4000;
#X obj 624 185 s gr_t_a;
#X connect 0 0 6 0;
#X connect 0 0 7 0;
#X connect 0 0 14 0;
#X connect 0 0 11 0;
#X connect 1 0 2 0;
#X connect 3 0 4 0;
#X connect 5 0 6 0;
#X connect 5 0 7 0;
#X connect 5 0 14 0;
#X connect 5 0 11 0;
#X connect 6 0 3 0;
#X connect 7 0 10 0;
#X connect 8 0 9 0;
#X connect 10 0 1 0;
#X connect 11 0 12 0;
#X connect 11 0 15 0;
#X connect 11 0 19 0;
#X connect 12 0 13 0;
#X connect 14 0 8 0;
#X connect 15 0 16 0;
#X connect 16 0 17 0;
#X connect 18 0 20 0;
#X connect 19 0 18 0;
#X restore 1404 543 pd gr_time_gliss_2;
#X obj 1404 518 delay 2000;
#N canvas 735 373 450 300 yakut_2 0;
#X obj 135 27 inlet;
#X msg 135 52 1;
#X obj 135 77 s fm_y;
#X obj 254 26 inlet;
#X msg 254 51 0;
#X msg 306 60 0 1000;
#X obj 306 85 line;
#X obj 306 110 s fm_v;
#X connect 0 0 1 0;
#X connect 1 0 2 0;
#X connect 3 0 4 0;
#X connect 3 0 5 0;
#X connect 4 0 2 0;
#X connect 5 0 6 0;
#X connect 6 0 7 0;
#X restore 1824 353 pd yakut_2;
#X obj 1755 633 delay 10000;
#X msg 1793 668 0;
#X obj 1793 702 s gl_on;
#X obj 1849 702 s gr_off;
#X msg 1870 668 1;
#X obj 1835 762 line;
#X obj 1835 787 s fm_v;
#X msg 1835 737 0 500;
#X obj 1053 380 delay 1000;
#N canvas 735 373 293 190 gr_random 0;
#X obj 37 37 inlet;
#X msg 37 62 1;
#X obj 37 87 s gr_mode;
#X msg 132 62 500 1000;
#X obj 132 87 line;
#X obj 132 112 s gr_t_a;
#X connect 0 0 1 0;
#X connect 0 0 3 0;
#X connect 1 0 2 0;
#X connect 3 0 4 0;
#X connect 4 0 5 0;
#X restore 1053 405 pd gr_random;
#N canvas 735 373 378 260 gr_params_2 0;
#X obj 37 37 inlet;
#X msg 37 62 134;
#X obj 37 87 s gr_t_a;
#X msg 130 61 15 \, 39 1000, f 12;
#X obj 130 86 line;
#X obj 130 111 s gr_dur;
#X msg 259 62 2435;
#X obj 259 87 s ld_rt;
#X connect 0 0 1 0;
#X connect 0 0 3 0;
#X connect 0 0 6 0;
#X connect 1 0 2 0;
#X connect 3 0 4 0;
#X connect 4 0 5 0;
#X connect 6 0 7 0;
#X restore 1095 333 pd gr_params_2;
#N canvas 623 386 450 300 yakut_cresc 0;
#X obj 37 37 inlet;
#X obj 37 114 line;
#X obj 37 139 s fm_v;
#X obj 211 42 inlet;
#X msg 37 89 0 \, 0.2 7000;
#X msg 211 94 0 300;
#X connect 0 0 4 0;
#X connect 1 0 2 0;
#X connect 3 0 5 0;
#X connect 4 0 1 0;
#X connect 5 0 1 0;
#X restore 1784 435 pd yakut_cresc;
#X obj 1819 377 delay 14000;
#X obj 1819 402 delay 14500;
#N canvas 840 356 450 300 prep 0;
#X obj 70 59 inlet;
#X obj 70 109 s gr_dur;
#X msg 70 84 118;
#X msg 156 83 714;
#X obj 156 108 s gr_mod_c;
#X msg 242 84 67;
#X obj 242 109 s gr_t;
#X msg 296 84 0.43;
#X obj 296 109 s gr_d;
#X msg 97 169 673;
#X obj 97 194 s gr_fr_other;
#X obj 167 43 delay 100;
#X obj 233 196 s ld_sp;
#X msg 301 171 477;
#X obj 301 196 s ld_dt;
#X msg 365 172 931;
#X obj 365 197 s ld_rt;
#X msg 233 171 0.2;
#X connect 0 0 2 0;
#X connect 0 0 9 0;
#X connect 0 0 11 0;
#X connect 0 0 17 0;
#X connect 0 0 13 0;
#X connect 0 0 15 0;
#X connect 2 0 1 0;
#X connect 3 0 4 0;
#X connect 5 0 6 0;
#X connect 7 0 8 0;
#X connect 9 0 10 0;
#X connect 11 0 3 0;
#X connect 11 0 5 0;
#X connect 11 0 7 0;
#X connect 13 0 14 0;
#X connect 15 0 16 0;
#X connect 17 0 12 0;
#X restore 106 3 pd prep;
#N canvas 728 347 450 300 ld_random_dt 0;
#X obj 62 29 inlet;
#X obj 62 79 metro 500;
#X obj 206 79 metro 500;
#X obj 62 129 + 420;
#X floatatom 162 149 5 0 0 0 - - - 0;
#X obj 62 104 random 35;
#X obj 266 39 random 2000;
#X obj 62 154 s ld_dt;
#X connect 0 0 1 0;
#X connect 0 0 2 0;
#X connect 1 0 5 0;
#X connect 1 0 6 0;
#X connect 3 0 4 0;
#X connect 3 0 7 0;
#X connect 5 0 3 0;
#X connect 6 0 1 1;
#X connect 6 0 2 1;
#X restore 271 501 pd ld_random_dt;
#X obj 271 479 tgl 15 0 empty empty empty 17 7 0 10 #fcfcfc #000000
#000000 0 1;
#X msg 298 408 1;
#X obj 316 269 delay 500;
#X msg 342 408 0;
#N canvas 735 373 450 300 ld_min_max 0;
#X obj 140 55 inlet;
#X obj 140 165 s ld_rt;
#X obj 287 54 inlet;
#X obj 287 155 s ld_rt;
#X msg 287 79 10 \, 4000 2000;
#X obj 287 104 line;
#X msg 140 80 400 \, 10 1000;
#X obj 140 117 line;
#X connect 0 0 6 0;
#X connect 2 0 4 0;
#X connect 4 0 5 0;
#X connect 5 0 3 0;
#X connect 6 0 7 0;
#X connect 7 0 1 0;
#X restore 1525 397 pd ld_min_max;
#N canvas 735 373 369 266 ld_prep2 0;
#X obj 45 42 inlet;
#X obj 45 174 s ld_rt;
#X obj 235 62 delay 12000;
#X msg 45 67 931 \, 2500 1000;
#X obj 45 92 line;
#X msg 235 87 2500 \, 931 500;
#X connect 0 0 3 0;
#X connect 0 0 2 0;
#X connect 2 0 5 0;
#X connect 3 0 4 0;
#X connect 4 0 1 0;
#X connect 5 0 1 0;
#X restore 80 401 pd ld_prep2;
#X obj 1755 608 delay 2000;
#X obj 1837 594 del 8000;
#N canvas 735 373 450 300 fm_off_ 0;
#X obj 37 37 inlet;
#X msg 37 75 0.01 \, 0 1000;
#X obj 37 100 line;
#X obj 37 125 s fm_v;
#X connect 0 0 1 0;
#X connect 1 0 2 0;
#X connect 2 0 3 0;
#X restore 1837 619 pd fm_off_;
#X connect 1 0 7 0;
#X connect 2 0 6 0;
#X connect 3 0 8 0;
#X connect 10 0 5 0;
#X connect 11 0 5 1;
#X connect 15 0 14 0;
#X connect 17 0 16 0;
#X connect 19 0 20 0;
#X connect 22 0 21 0;
#X connect 23 0 21 1;
#X connect 25 0 24 0;
#X connect 26 0 24 1;
#X connect 30 0 29 0;
#X connect 31 0 28 0;
#X connect 33 0 32 0;
#X connect 34 0 32 1;
#X connect 36 0 35 0;
#X connect 38 0 37 0;
#X connect 39 0 35 1;
#X connect 40 0 37 1;
#X connect 46 0 45 0;
#X connect 47 0 45 2;
#X connect 48 0 45 4;
#X connect 49 0 45 5;
#X connect 51 0 50 0;
#X connect 52 0 42 0;
#X connect 53 0 42 1;
#X connect 54 0 43 0;
#X connect 56 0 55 0;
#X connect 58 0 57 0;
#X connect 60 0 59 0;
#X connect 64 0 63 0;
#X connect 65 0 67 0;
#X connect 66 0 67 1;
#X connect 71 0 68 0;
#X connect 72 0 69 0;
#X connect 73 0 70 0;
#X connect 75 0 74 0;
#X connect 78 0 77 0;
#X connect 81 0 80 0;
#X connect 83 0 82 0;
#X connect 84 0 82 1;
#X connect 85 0 82 2;
#X connect 86 0 79 0;
#X connect 87 0 79 1;
#X connect 88 0 9 0;
#X connect 89 0 90 0;
#X connect 89 0 91 0;
#X connect 89 0 108 0;
#X connect 89 0 313 0;
#X connect 90 0 9 0;
#X connect 90 0 18 0;
#X connect 91 0 92 0;
#X connect 91 0 93 0;
#X connect 93 0 3 0;
#X connect 93 0 94 0;
#X connect 94 0 3 0;
#X connect 94 0 95 0;
#X connect 94 0 105 0;
#X connect 94 0 158 0;
#X connect 94 0 159 0;
#X connect 94 0 163 0;
#X connect 95 0 3 0;
#X connect 95 0 96 0;
#X connect 95 0 106 0;
#X connect 95 0 158 0;
#X connect 95 0 160 0;
#X connect 95 0 163 0;
#X connect 96 0 3 0;
#X connect 96 0 97 0;
#X connect 96 0 107 0;
#X connect 96 0 158 0;
#X connect 96 0 161 0;
#X connect 96 0 163 0;
#X connect 97 0 98 0;
#X connect 97 0 99 0;
#X connect 97 0 107 0;
#X connect 97 0 256 0;
#X connect 97 0 317 0;
#X connect 99 0 100 0;
#X connect 99 0 109 0;
#X connect 101 0 100 0;
#X connect 104 0 103 0;
#X connect 105 0 110 0;
#X connect 106 0 111 0;
#X connect 107 0 112 0;
#X connect 108 0 104 0;
#X connect 108 0 254 0;
#X connect 109 0 1 0;
#X connect 109 0 143 0;
#X connect 109 0 320 0;
#X connect 110 0 102 0;
#X connect 111 0 102 0;
#X connect 112 0 102 0;
#X connect 114 0 116 0;
#X connect 114 0 115 0;
#X connect 114 0 162 0;
#X connect 115 0 5 1;
#X connect 116 0 5 0;
#X connect 117 0 118 0;
#X connect 117 0 127 0;
#X connect 117 0 138 0;
#X connect 117 0 145 0;
#X connect 117 0 318 0;
#X connect 118 0 68 0;
#X connect 119 0 80 0;
#X connect 120 0 70 0;
#X connect 121 0 69 0;
#X connect 122 0 69 0;
#X connect 123 0 70 0;
#X connect 124 0 69 0;
#X connect 124 0 148 0;
#X connect 125 0 68 0;
#X connect 126 0 70 0;
#X connect 127 0 119 0;
#X connect 127 0 128 0;
#X connect 128 0 120 0;
#X connect 128 0 129 0;
#X connect 129 0 121 0;
#X connect 129 0 130 0;
#X connect 130 0 126 0;
#X connect 130 0 131 0;
#X connect 131 0 122 0;
#X connect 131 0 133 0;
#X connect 132 0 123 0;
#X connect 132 0 146 0;
#X connect 133 0 125 0;
#X connect 133 0 132 0;
#X connect 135 0 134 0;
#X connect 136 0 134 1;
#X connect 137 0 134 2;
#X connect 138 0 135 0;
#X connect 138 0 136 0;
#X connect 138 0 137 0;
#X connect 138 0 139 0;
#X connect 139 0 140 0;
#X connect 139 0 142 0;
#X connect 139 0 141 0;
#X connect 140 0 134 0;
#X connect 141 0 134 2;
#X connect 142 0 134 1;
#X connect 143 0 144 0;
#X connect 143 0 117 0;
#X connect 144 0 114 0;
#X connect 146 0 124 0;
#X connect 146 0 30 0;
#X connect 147 0 2 0;
#X connect 147 0 165 0;
#X connect 147 0 166 0;
#X connect 148 0 149 0;
#X connect 148 0 31 0;
#X connect 149 0 113 0;
#X connect 149 0 147 0;
#X connect 151 0 150 0;
#X connect 152 0 77 1;
#X connect 153 0 150 0;
#X connect 154 0 18 1;
#X connect 155 0 156 0;
#X connect 155 0 157 0;
#X connect 157 0 78 0;
#X connect 157 0 167 0;
#X connect 158 0 5 1;
#X connect 159 0 5 0;
#X connect 160 0 5 0;
#X connect 161 0 5 0;
#X connect 162 0 5 2;
#X connect 163 0 5 2;
#X connect 165 0 151 0;
#X connect 165 0 154 0;
#X connect 165 0 155 0;
#X connect 166 0 164 0;
#X connect 167 0 17 0;
#X connect 167 0 168 0;
#X connect 167 0 307 0;
#X connect 168 0 19 0;
#X connect 168 0 169 0;
#X connect 168 0 175 0;
#X connect 169 0 22 0;
#X connect 169 0 171 0;
#X connect 170 0 168 0;
#X connect 170 0 17 0;
#X connect 171 0 25 0;
#X connect 171 0 172 0;
#X connect 172 0 173 0;
#X connect 172 0 174 0;
#X connect 173 0 19 0;
#X connect 173 0 150 0;
#X connect 175 0 178 0;
#X connect 175 0 177 0;
#X connect 175 0 176 0;
#X connect 175 0 255 0;
#X connect 175 0 260 0;
#X connect 176 0 5 1;
#X connect 177 0 5 0;
#X connect 178 0 5 2;
#X connect 180 0 181 0;
#X connect 180 0 182 0;
#X connect 180 0 183 0;
#X connect 181 0 179 0;
#X connect 182 0 179 1;
#X connect 183 0 228 0;
#X connect 183 0 184 0;
#X connect 184 0 224 0;
#X connect 184 0 185 0;
#X connect 185 0 225 0;
#X connect 185 0 186 0;
#X connect 185 0 295 0;
#X connect 186 0 187 0;
#X connect 186 0 188 0;
#X connect 187 0 179 0;
#X connect 188 0 226 0;
#X connect 188 0 189 0;
#X connect 189 0 227 0;
#X connect 189 0 191 0;
#X connect 190 0 179 2;
#X connect 191 0 192 0;
#X connect 191 0 190 0;
#X connect 191 0 203 0;
#X connect 192 0 179 1;
#X connect 193 0 230 0;
#X connect 193 0 194 0;
#X connect 193 0 196 0;
#X connect 194 0 179 2;
#X connect 195 0 179 2;
#X connect 196 0 231 0;
#X connect 196 0 195 0;
#X connect 196 0 197 0;
#X connect 197 0 233 0;
#X connect 197 0 198 0;
#X connect 197 0 200 0;
#X connect 198 0 179 2;
#X connect 199 0 179 2;
#X connect 200 0 232 0;
#X connect 200 0 199 0;
#X connect 200 0 201 0;
#X connect 201 0 234 0;
#X connect 201 0 206 0;
#X connect 201 0 202 0;
#X connect 202 0 205 0;
#X connect 202 0 207 0;
#X connect 202 0 208 0;
#X connect 203 0 229 0;
#X connect 203 0 204 0;
#X connect 203 0 193 0;
#X connect 204 0 179 2;
#X connect 205 0 179 1;
#X connect 206 0 179 2;
#X connect 207 0 179 2;
#X connect 208 0 209 0;
#X connect 208 0 221 0;
#X connect 210 0 209 0;
#X connect 211 0 41 4;
#X connect 212 0 41 3;
#X connect 213 0 214 0;
#X connect 213 0 215 0;
#X connect 213 0 212 0;
#X connect 213 0 216 0;
#X connect 213 0 211 0;
#X connect 214 0 41 1;
#X connect 215 0 41 0;
#X connect 216 0 41 2;
#X connect 218 0 217 0;
#X connect 218 0 222 0;
#X connect 218 0 267 0;
#X connect 218 0 298 0;
#X connect 218 0 311 0;
#X connect 221 0 213 0;
#X connect 221 0 223 0;
#X connect 222 0 243 0;
#X connect 223 0 218 0;
#X connect 224 0 179 1;
#X connect 225 0 179 0;
#X connect 226 0 179 1;
#X connect 227 0 179 0;
#X connect 228 0 179 1;
#X connect 229 0 179 1;
#X connect 230 0 179 0;
#X connect 231 0 179 1;
#X connect 232 0 179 0;
#X connect 233 0 179 0;
#X connect 234 0 179 1;
#X connect 235 0 220 0;
#X connect 235 0 220 1;
#X connect 235 0 247 0;
#X connect 235 0 245 0;
#X connect 235 0 47 0;
#X connect 236 0 60 0;
#X connect 236 0 248 0;
#X connect 236 0 252 0;
#X connect 236 0 261 0;
#X connect 237 0 51 0;
#X connect 237 0 238 0;
#X connect 238 0 51 0;
#X connect 238 0 239 0;
#X connect 239 0 51 0;
#X connect 239 0 240 0;
#X connect 240 0 236 0;
#X connect 240 0 58 0;
#X connect 241 0 242 0;
#X connect 243 0 235 0;
#X connect 243 0 56 0;
#X connect 243 0 219 0;
#X connect 243 0 273 0;
#X connect 243 0 298 1;
#X connect 243 0 319 1;
#X connect 244 0 51 0;
#X connect 244 0 242 0;
#X connect 245 0 45 3;
#X connect 246 0 244 0;
#X connect 246 0 237 0;
#X connect 246 0 319 0;
#X connect 247 0 241 0;
#X connect 247 0 246 0;
#X connect 250 0 249 0;
#X connect 251 0 18 0;
#X connect 252 0 250 0;
#X connect 252 0 274 0;
#X connect 252 0 319 1;
#X connect 254 0 253 0;
#X connect 255 0 257 0;
#X connect 255 0 259 0;
#X connect 255 0 271 0;
#X connect 256 0 15 0;
#X connect 257 0 9 0;
#X connect 258 0 14 1;
#X connect 259 0 3 0;
#X connect 259 0 272 0;
#X connect 260 0 180 0;
#X connect 261 0 15 0;
#X connect 261 0 262 0;
#X connect 261 0 264 0;
#X connect 262 0 265 0;
#X connect 262 0 266 0;
#X connect 264 0 263 0;
#X connect 265 0 18 1;
#X connect 266 0 34 0;
#X connect 266 0 321 0;
#X connect 267 0 152 0;
#X connect 267 0 270 0;
#X connect 268 0 164 0;
#X connect 270 0 269 0;
#X connect 270 0 151 0;
#X connect 272 0 271 1;
#X connect 274 0 273 1;
#X connect 275 0 69 0;
#X connect 276 0 68 0;
#X connect 277 0 70 0;
#X connect 278 0 288 0;
#X connect 278 0 69 0;
#X connect 279 0 69 0;
#X connect 280 0 68 0;
#X connect 281 0 70 0;
#X connect 282 0 70 0;
#X connect 283 0 80 0;
#X connect 284 0 282 0;
#X connect 284 0 285 0;
#X connect 285 0 279 0;
#X connect 285 0 286 0;
#X connect 286 0 283 0;
#X connect 286 0 287 0;
#X connect 287 0 278 0;
#X connect 288 0 277 0;
#X connect 288 0 290 0;
#X connect 288 0 68 0;
#X connect 289 0 275 0;
#X connect 289 0 291 0;
#X connect 290 0 276 0;
#X connect 290 0 289 0;
#X connect 291 0 281 0;
#X connect 291 0 293 0;
#X connect 292 0 280 0;
#X connect 292 0 284 0;
#X connect 293 0 294 0;
#X connect 293 0 297 0;
#X connect 295 0 292 0;
#X connect 295 0 309 0;
#X connect 297 0 296 0;
#X connect 299 0 153 0;
#X connect 299 0 300 0;
#X connect 299 0 303 0;
#X connect 299 0 306 0;
#X connect 300 0 301 0;
#X connect 303 0 302 0;
#X connect 304 0 305 0;
#X connect 306 0 304 0;
#X connect 307 0 308 0;
#X connect 311 0 310 0;
#X connect 311 0 312 0;
#X connect 311 0 317 0;
#X connect 312 0 310 1;
#X connect 312 0 318 0;
#X connect 315 0 314 0;
#X connect 316 0 315 0;
#X connect 317 0 316 0;
#X connect 318 0 315 0;
#X connect 321 0 66 0;
#X connect 321 0 299 0;
#X connect 321 0 322 0;
#X connect 322 0 323 0;
