#N canvas 24 30 808 972 12;
#X msg 9 59 1;
#X text 48 61 start!;
#X text 702 13 K. Meldre;
#X text 352 23 (2024);
#N canvas 480 290 552 534 recitativo 0;
#X obj 33 18 inlet;
#X msg 33 83 20;
#X obj 33 108 s carrier;
#X msg 186 84 173;
#X obj 186 109 s delay_time;
#X msg 280 84 0.78;
#X obj 280 109 s feedback;
#X msg 358 84 1.8;
#X obj 358 109 s dry;
#X obj 405 109 s wet;
#X msg 405 84 1.44;
#X obj 458 109 s volume;
#X floatatom 148 407 5 0 0 0 - - - 0;
#X obj 106 361 bang;
#X obj 316 504 s depth;
#X obj 106 387 random 600;
#X msg 212 385 0;
#X obj 106 484 line;
#X floatatom 106 509 5 0 0 0 - - - 0;
#X obj 106 315 metro 4000;
#X obj 358 210 random 2, f 16;
#X floatatom 437 230 5 0 0 0 - - - 0;
#X obj 358 235 sel 0 1;
#X floatatom 400 402 5 0 0 0 - - - 0;
#X obj 358 356 bang;
#X obj 358 382 random 600;
#X msg 464 374 0;
#X obj 358 331 metro 4000;
#X msg 358 156 1;
#X msg 106 162 0;
#X msg 106 203 stop;
#X msg 303 295 stop;
#X msg 381 296 stop;
#X floatatom 365 457 5 0 0 0 - - - 0;
#X obj 185 223 metro 100;
#X floatatom 185 273 5 0 0 0 - - - 0;
#X obj 185 248 random 1000;
#X msg 48 431 70 500;
#X obj 48 375 bang;
#X obj 365 432 + 200;
#X msg 464 354 800;
#X msg 106 456 \$1 300;
#X obj 489 15 inlet;
#X obj 358 186 metro 700;
#X obj 106 425 + 50;
#X obj 316 432 + 20;
#X obj 173 15 inlet;
#X obj 424 15 inlet;
#X obj 107 108 s mod;
#X msg 458 84 0.018;
#X msg 107 83 1e-06;
#X obj 41 192 s mod;
#X msg 41 167 0;
#X obj 41 135 delay 50;
#X msg 212 359 500;
#X connect 0 0 1 0;
#X connect 0 0 50 0;
#X connect 0 0 3 0;
#X connect 0 0 5 0;
#X connect 0 0 7 0;
#X connect 0 0 10 0;
#X connect 0 0 49 0;
#X connect 0 0 28 0;
#X connect 0 0 53 0;
#X connect 1 0 2 0;
#X connect 3 0 4 0;
#X connect 5 0 6 0;
#X connect 7 0 8 0;
#X connect 10 0 9 0;
#X connect 13 0 15 0;
#X connect 15 0 12 0;
#X connect 15 0 44 0;
#X connect 16 0 15 1;
#X connect 17 0 18 0;
#X connect 17 0 14 0;
#X connect 19 0 13 0;
#X connect 20 0 21 0;
#X connect 20 0 22 0;
#X connect 22 0 27 0;
#X connect 22 0 31 0;
#X connect 22 0 40 0;
#X connect 22 1 32 0;
#X connect 22 1 19 0;
#X connect 22 1 54 0;
#X connect 24 0 25 0;
#X connect 25 0 23 0;
#X connect 25 0 39 0;
#X connect 25 0 45 0;
#X connect 25 0 27 1;
#X connect 26 0 25 1;
#X connect 27 0 24 0;
#X connect 28 0 34 0;
#X connect 28 0 43 0;
#X connect 29 0 30 0;
#X connect 29 0 38 0;
#X connect 30 0 19 0;
#X connect 30 0 27 0;
#X connect 30 0 34 0;
#X connect 30 0 43 0;
#X connect 31 0 19 0;
#X connect 32 0 27 0;
#X connect 34 0 36 0;
#X connect 36 0 19 1;
#X connect 36 0 35 0;
#X connect 37 0 17 0;
#X connect 38 0 37 0;
#X connect 39 0 33 0;
#X connect 40 0 25 1;
#X connect 41 0 17 0;
#X connect 42 0 29 0;
#X connect 43 0 20 0;
#X connect 44 0 41 0;
#X connect 45 0 14 0;
#X connect 46 0 15 1;
#X connect 47 0 25 1;
#X connect 49 0 11 0;
#X connect 50 0 48 0;
#X connect 52 0 51 0;
#X connect 53 0 52 0;
#X connect 54 0 15 1;
#X restore 356 670 pd recitativo;
#X f 16;
#X obj 356 651 bng 15 250 50 0 empty empty empty 17 7 0 10 #fcfcfc
#000000 #000000;
#X obj 463 652 bng 15 250 50 0 empty empty empty 17 7 0 10 #fcfcfc
#000000 #000000;
#X obj 9 82 s osc_on_off;
#N canvas 886 563 540 352 cluster_1 0;
#X obj 35 44 inlet;
#X msg 35 87 37.3583 500;
#X obj 35 112 line;
#X obj 35 137 s carrier;
#X obj 122 112 line;
#X msg 122 87 532.544 300;
#X msg 207 87 1.7;
#X obj 122 137 s mod;
#X msg 277 87 0.02;
#X obj 277 137 s volume;
#X obj 207 137 s dry;
#X obj 339 137 s wet;
#X msg 339 87 1.3;
#X obj 382 112 line;
#X msg 382 87 268 400;
#X obj 382 137 s delay;
#X msg 446 88 0.75;
#X obj 446 138 s feedback;
#X obj 163 207 delay 500;
#X obj 163 257 line;
#X obj 188 311 s depth;
#X obj 237 258 line;
#X obj 237 283 s depth;
#X obj 302 196 delay 2600;
#X obj 268 206 bng 15 250 50 0 empty empty empty 17 7 0 10 #fcfcfc
#000000 #000000;
#X obj 135 217 bng 15 250 50 0 empty empty empty 17 7 0 10 #fcfcfc
#000000 #000000;
#X floatatom 163 282 5 0 0 0 - - - 0;
#X msg 163 232 0 \, 1000 2000 1;
#X msg 302 221 1000 \, 10 500 1;
#X connect 0 0 1 0;
#X connect 0 0 5 0;
#X connect 0 0 6 0;
#X connect 0 0 8 0;
#X connect 0 0 12 0;
#X connect 0 0 14 0;
#X connect 0 0 16 0;
#X connect 0 0 18 0;
#X connect 0 0 23 0;
#X connect 1 0 2 0;
#X connect 2 0 3 0;
#X connect 4 0 7 0;
#X connect 5 0 4 0;
#X connect 6 0 10 0;
#X connect 8 0 9 0;
#X connect 12 0 11 0;
#X connect 13 0 15 0;
#X connect 14 0 13 0;
#X connect 16 0 17 0;
#X connect 18 0 27 0;
#X connect 19 0 20 0;
#X connect 19 0 26 0;
#X connect 21 0 22 0;
#X connect 23 0 28 0;
#X connect 24 0 28 0;
#X connect 25 0 27 0;
#X connect 27 0 19 0;
#X connect 28 0 21 0;
#X restore 3 704 pd cluster_1;
#X obj 3 687 bng 15 250 50 0 empty empty empty 17 7 0 10 #fcfcfc #000000
#000000;
#N canvas 799 681 574 300 setup 0;
#X obj 33 18 inlet;
#X msg 33 83 20;
#X obj 33 108 s carrier;
#X msg 107 83 0;
#X msg 186 84 173;
#X obj 186 109 s delay_time;
#X msg 280 84 0.78;
#X obj 280 109 s feedback;
#X msg 358 84 1.8;
#X obj 358 109 s dry;
#X obj 405 109 s wet;
#X msg 405 84 1.44;
#X msg 458 84 0.0089;
#X obj 458 109 s volume;
#X obj 107 108 s mod;
#X connect 0 0 1 0;
#X connect 0 0 3 0;
#X connect 0 0 4 0;
#X connect 0 0 6 0;
#X connect 0 0 8 0;
#X connect 0 0 11 0;
#X connect 0 0 12 0;
#X connect 1 0 2 0;
#X connect 3 0 14 0;
#X connect 4 0 5 0;
#X connect 6 0 7 0;
#X connect 8 0 9 0;
#X connect 11 0 10 0;
#X connect 12 0 13 0;
#X restore 3 621 pd setup;
#X obj 3 603 bng 15 250 50 0 empty empty empty 17 7 0 10 #fcfcfc #000000
#000000;
#N canvas 990 345 450 300 space_comet_effect_1 0;
#X obj 33 25 inlet;
#X msg 33 72 1153.85 500;
#X obj 33 97 line;
#X obj 33 122 s mod;
#X obj 124 97 line;
#X msg 124 72 118 600;
#X obj 124 122 s depth;
#X obj 218 127 line;
#X obj 218 152 s carrier;
#X obj 78 219 line;
#X obj 78 244 s volume;
#X msg 78 194 0.008 \, 0.0089 1700;
#X msg 218 101 67 \, 915 3000 180;
#X obj 218 72 delay 900;
#X connect 0 0 1 0;
#X connect 0 0 5 0;
#X connect 0 0 11 0;
#X connect 0 0 13 0;
#X connect 1 0 2 0;
#X connect 2 0 3 0;
#X connect 4 0 6 0;
#X connect 5 0 4 0;
#X connect 7 0 8 0;
#X connect 9 0 10 0;
#X connect 11 0 9 0;
#X connect 12 0 7 0;
#X connect 13 0 12 0;
#X restore 8 948 pd space_comet_effect_1;
#X obj 8 930 bng 15 250 50 0 empty empty empty 17 7 0 10 #fcfcfc #000000
#000000;
#N canvas 1326 343 492 320 space_comet_effect_2 0;
#X obj 27 26 inlet;
#X obj 41 158 line;
#X obj 41 103 delay 1500;
#X obj 41 183 s mod;
#X obj 194 160 line;
#X obj 194 185 s depth;
#X obj 194 105 delay 1500;
#X msg 194 137 0 \, 814 2500 130;
#X msg 41 132 67 \, 800 3000 130;
#X connect 0 0 2 0;
#X connect 0 0 6 0;
#X connect 1 0 3 0;
#X connect 2 0 8 0;
#X connect 4 0 5 0;
#X connect 6 0 7 0;
#X connect 7 0 4 0;
#X connect 8 0 1 0;
#X restore 67 924 pd space_comet_effect_2;
#X obj 67 907 bng 15 250 50 0 empty empty empty 17 7 0 10 #fcfcfc #000000
#000000;
#X obj 288 873 bng 15 250 50 0 empty empty empty 17 7 0 10 #fcfcfc
#000000 #000000;
#X obj 397 874 bng 15 250 50 0 empty empty empty 17 7 0 10 #fcfcfc
#000000 #000000;
#N canvas 796 428 450 300 mod_wanderer 0;
#X obj 60 43 inlet;
#X obj 213 44 inlet;
#X msg 213 69 0;
#X msg 60 68 1;
#X obj 84 132 metro 1000;
#X obj 84 157 random 1500;
#X floatatom 128 177 5 0 0 0 - - - 0;
#X obj 85 234 s mod;
#X obj 186 164 random 3000;
#X floatatom 227 184 5 0 0 0 - - - 0;
#X text 280 111 total time 8 sec;
#X connect 0 0 3 0;
#X connect 1 0 2 0;
#X connect 2 0 4 0;
#X connect 3 0 4 0;
#X connect 4 0 5 0;
#X connect 4 0 8 0;
#X connect 5 0 6 0;
#X connect 5 0 4 1;
#X connect 8 0 9 0;
#X connect 8 0 7 0;
#X restore 263 915 pd mod_wanderer;
#X f 22;
#X obj 263 895 bng 15 250 50 0 empty empty empty 17 7 0 10 #fcfcfc
#000000 #000000;
#X obj 414 896 bng 15 250 50 0 empty empty empty 17 7 0 10 #fcfcfc
#000000 #000000;
#N canvas 993 205 664 729 carrier_drift 0;
#X obj 37 33 inlet;
#X msg 37 58 710 1000;
#X obj 37 83 line;
#X obj 37 108 s mod;
#X obj 112 84 line;
#X msg 112 59 299 1000;
#X obj 112 109 s depth;
#X obj 256 18 inlet;
#X msg 256 43 0;
#X obj 233 95 delay 1000;
#X obj 233 120 metro 1000;
#X obj 464 233 pack \$1 \$2 \$3;
#X obj 464 297 line;
#X floatatom 496 317 5 0 0 0 - - - 0;
#X obj 233 145 random 3000;
#X obj 372 122 random 110;
#X floatatom 407 149 5 0 0 0 - - - 0;
#X floatatom 489 150 5 0 0 0 - - - 0;
#X msg 464 258 \$2 \, \$3 \$1;
#X obj 346 157 + 20;
#X obj 450 171 + 20;
#X obj 464 337 s carrier;
#X obj 458 122 random 400;
#X obj 47 224 line;
#X msg 47 199 0.0089 \, 0.0189 3000;
#X obj 47 249 s volume;
#X floatatom 248 290 5 0 0 0 - - - 0;
#X obj 225 270 random 2;
#X obj 225 337 select 0 1;
#X obj 131 466 pack \$1 \$2 \$3;
#X obj 131 530 line;
#X floatatom 163 550 5 0 0 0 - - - 0;
#X msg 131 491 \$2 \, \$3 \$1;
#X obj 131 570 s carrier;
#X obj 292 470 pack \$1 \$2 \$3;
#X obj 292 534 line;
#X floatatom 324 554 5 0 0 0 - - - 0;
#X obj 292 574 s carrier;
#X obj 227 373 int;
#X obj 264 373 int;
#X floatatom 234 430 5 0 0 0 - - - 0;
#X floatatom 271 430 5 0 0 0 - - - 0;
#X msg 292 495 \$3 \, \$2 \$1;
#X obj 66 314 line;
#X obj 66 339 s carrier;
#X msg 66 289 1000 \, 100 1000 50, f 18;
#X connect 0 0 1 0;
#X connect 0 0 5 0;
#X connect 0 0 9 0;
#X connect 0 0 24 0;
#X connect 0 0 45 0;
#X connect 1 0 2 0;
#X connect 2 0 3 0;
#X connect 4 0 6 0;
#X connect 5 0 4 0;
#X connect 7 0 8 0;
#X connect 8 0 10 0;
#X connect 9 0 10 0;
#X connect 10 0 14 0;
#X connect 10 0 15 0;
#X connect 10 0 22 0;
#X connect 10 0 27 0;
#X connect 11 0 18 0;
#X connect 12 0 13 0;
#X connect 12 0 21 0;
#X connect 14 0 10 1;
#X connect 14 0 38 1;
#X connect 14 0 39 1;
#X connect 15 0 16 0;
#X connect 15 0 19 0;
#X connect 18 0 12 0;
#X connect 19 0 11 1;
#X connect 19 0 34 1;
#X connect 19 0 29 1;
#X connect 20 0 11 2;
#X connect 20 0 34 2;
#X connect 20 0 29 2;
#X connect 22 0 17 0;
#X connect 22 0 20 0;
#X connect 23 0 25 0;
#X connect 24 0 23 0;
#X connect 27 0 26 0;
#X connect 27 0 28 0;
#X connect 28 0 38 0;
#X connect 28 1 39 0;
#X connect 29 0 32 0;
#X connect 30 0 31 0;
#X connect 30 0 33 0;
#X connect 32 0 30 0;
#X connect 34 0 42 0;
#X connect 35 0 36 0;
#X connect 35 0 37 0;
#X connect 38 0 40 0;
#X connect 38 0 29 0;
#X connect 39 0 41 0;
#X connect 39 0 34 0;
#X connect 42 0 35 0;
#X connect 43 0 44 0;
#X connect 45 0 43 0;
#X restore 288 892 pd carrier_drift;
#N canvas 592 436 450 347 depth_wanderer 0;
#X obj 69 43 inlet;
#X obj 222 44 inlet;
#X msg 222 69 0;
#X msg 69 68 1;
#X obj 69 96 metro 1000;
#X obj 106 185 pack \$1 \$2 \$3;
#X obj 106 249 line;
#X floatatom 138 269 5 0 0 0 - - - 0;
#X obj 69 139 random 3000;
#X floatatom 266 144 5 0 0 0 - - - 0;
#X obj 106 299 s depth;
#X obj 227 165 + 100;
#X obj 235 116 random 150;
#X msg 106 210 \$3 \$1;
#X connect 0 0 3 0;
#X connect 1 0 2 0;
#X connect 2 0 4 0;
#X connect 3 0 4 0;
#X connect 4 0 8 0;
#X connect 4 0 12 0;
#X connect 5 0 13 0;
#X connect 6 0 7 0;
#X connect 6 0 10 0;
#X connect 8 0 4 1;
#X connect 8 0 5 0;
#X connect 11 0 5 2;
#X connect 12 0 9 0;
#X connect 12 0 11 0;
#X connect 13 0 6 0;
#X restore 240 940 pd depth_wanderer;
#X f 29;
#X obj 240 922 bng 15 250 50 0 empty empty empty 17 7 0 10 #fcfcfc
#000000 #000000;
#X obj 440 921 bng 15 250 50 0 empty empty empty 17 7 0 10 #fcfcfc
#000000 #000000;
#N canvas 1070 623 510 300 space_ricochet 0;
#X obj 42 43 inlet;
#X msg 42 68 219 1000;
#X obj 42 93 line;
#X obj 42 118 s carrier;
#X obj 189 120 line;
#X obj 189 145 s delay_time;
#X obj 299 165 line;
#X msg 112 30 1;
#X obj 79 203 line;
#X obj 79 228 s depth;
#X msg 189 95 800 \, 31 7000 200;
#X msg 299 140 0.779 \, 0.93 7500 1;
#X obj 299 190 s feedback;
#X msg 79 178 10 \, 551 1000 0.2;
#X obj 189 63 delay 2000;
#X obj 322 65 line;
#X obj 322 90 s delay_time;
#X msg 322 41 173 \, 700 1800;
#X connect 0 0 1 0;
#X connect 0 0 13 0;
#X connect 0 0 14 0;
#X connect 0 0 17 0;
#X connect 1 0 2 0;
#X connect 2 0 3 0;
#X connect 4 0 5 0;
#X connect 6 0 12 0;
#X connect 7 0 14 0;
#X connect 8 0 9 0;
#X connect 10 0 4 0;
#X connect 11 0 6 0;
#X connect 13 0 8 0;
#X connect 14 0 10 0;
#X connect 14 0 11 0;
#X connect 15 0 16 0;
#X connect 17 0 15 0;
#X restore 60 841 pd space_ricochet;
#X obj 60 823 bng 15 250 50 0 empty empty empty 17 7 0 10 #fcfcfc #000000
#000000;
#X obj 139 744 bng 15 250 50 0 empty empty empty 17 7 0 10 #fcfcfc
#000000 #000000;
#X obj 360 760 bng 15 250 50 0 empty empty empty 17 7 0 10 #fcfcfc
#000000 #000000;
#N canvas 735 373 450 300 mod_up 0;
#X obj 43 31 inlet;
#X msg 43 56 887 \, 4437 8000;
#X obj 43 81 line;
#X obj 43 106 s mod;
#X connect 0 0 1 0;
#X connect 1 0 2 0;
#X connect 2 0 3 0;
#X restore 162 696 pd mod_up;
#X obj 162 677 bng 15 250 50 0 empty empty empty 17 7 0 10 #fcfcfc
#000000 #000000;
#N canvas 735 373 450 300 delay_variation 0;
#X obj 44 47 inlet;
#X msg 44 72 94.48;
#X obj 44 97 s delay_time;
#X connect 0 0 1 0;
#X connect 1 0 2 0;
#X restore 229 689 pd delay_variation;
#X obj 229 671 bng 15 250 50 0 empty empty empty 17 7 0 10 #fcfcfc
#000000 #000000;
#X msg 241 759 180;
#X msg 171 759 200;
#N canvas 706 486 649 483 cluster_skips 0;
#X obj 31 24 inlet;
#X msg 151 134 85 500;
#X obj 151 159 line;
#X obj 151 184 s carrier;
#X obj 51 137 line;
#X obj 51 162 s mod;
#X obj 41 246 line;
#X obj 41 271 s feedback;
#X obj 209 21 inlet;
#X msg 209 46 0;
#X obj 123 68 delay 1000;
#X obj 238 342 s delay_time;
#X msg 266 64 1;
#X obj 227 177 select 0 1 2 3 4 5;
#X obj 227 131 random 6;
#X floatatom 286 151 5 0 0 0 - - - 0;
#X msg 227 202 62;
#X msg 247 228 31;
#X msg 268 203 78;
#X obj 209 94 metro 2000;
#X msg 288 228 12;
#X msg 309 204 20;
#X msg 329 229 46;
#X obj 31 345 line;
#X obj 31 370 s depth;
#X msg 274 292 \$1 1800;
#X obj 274 317 line;
#X obj 314 119 delay 5000;
#X obj 414 164 metro 1000;
#X obj 463 190 random 2000;
#X obj 414 233 random 50;
#X obj 414 258 + 50;
#X obj 414 343 s carrier;
#X floatatom 446 278 5 0 0 0 - - - 0;
#X floatatom 515 230 5 0 0 0 - - - 0;
#X obj 472 210 + 500;
#X obj 132 295 line;
#X obj 132 320 s volume;
#X obj 418 69 line;
#X obj 418 94 s carrier;
#X msg 132 270 0.004 \, 0.02 3500;
#X msg 31 320 270 \, 173 800;
#X msg 41 221 0.93 \, 0.8 800;
#X msg 418 44 52 \, 85 1000 50, f 18;
#X msg 51 112 88 \, 443 700;
#X msg 148 386 1385 \, 173 1000;
#X obj 148 411 line;
#X obj 148 436 s delay_time;
#X connect 0 0 44 0;
#X connect 0 0 42 0;
#X connect 0 0 10 0;
#X connect 0 0 41 0;
#X connect 0 0 40 0;
#X connect 0 0 43 0;
#X connect 0 0 45 0;
#X connect 1 0 2 0;
#X connect 2 0 3 0;
#X connect 4 0 5 0;
#X connect 6 0 7 0;
#X connect 8 0 9 0;
#X connect 9 0 19 0;
#X connect 9 0 28 0;
#X connect 10 0 19 0;
#X connect 10 0 27 0;
#X connect 12 0 19 0;
#X connect 13 0 16 0;
#X connect 13 1 17 0;
#X connect 13 2 18 0;
#X connect 13 3 20 0;
#X connect 13 4 21 0;
#X connect 13 5 22 0;
#X connect 14 0 15 0;
#X connect 14 0 13 0;
#X connect 16 0 25 0;
#X connect 17 0 25 0;
#X connect 18 0 25 0;
#X connect 19 0 14 0;
#X connect 20 0 25 0;
#X connect 21 0 25 0;
#X connect 22 0 25 0;
#X connect 23 0 24 0;
#X connect 25 0 26 0;
#X connect 26 0 11 0;
#X connect 27 0 28 0;
#X connect 28 0 29 0;
#X connect 28 0 30 0;
#X connect 29 0 35 0;
#X connect 30 0 31 0;
#X connect 31 0 32 0;
#X connect 31 0 33 0;
#X connect 35 0 34 0;
#X connect 35 0 28 1;
#X connect 36 0 37 0;
#X connect 38 0 39 0;
#X connect 40 0 36 0;
#X connect 41 0 23 0;
#X connect 42 0 6 0;
#X connect 43 0 38 0;
#X connect 44 0 4 0;
#X connect 45 0 46 0;
#X connect 46 0 47 0;
#X restore 478 824 pd cluster_skips;
#X f 24;
#X obj 478 802 bng 15 250 50 0 empty empty empty 17 7 0 10 #fcfcfc
#000000 #000000;
#X obj 643 804 bng 15 250 50 0 empty empty empty 17 7 0 10 #fcfcfc
#000000 #000000;
#N canvas 1129 556 470 394 bass_pedal 0;
#X obj 31 24 inlet;
#X obj 31 74 line;
#X obj 31 99 s mod;
#X obj 141 50 delay 2000;
#X msg 141 75 1;
#X obj 304 33 inlet;
#X msg 304 58 0;
#X obj 141 120 s komuz;
#X obj 239 159 line;
#X obj 350 159 line;
#X obj 350 184 s latest;
#X obj 157 229 line;
#X msg 157 205 78 7000;
#X obj 157 254 s depth_a;
#X obj 251 244 line;
#X msg 251 220 236 8000;
#X obj 251 269 s depth_b;
#X obj 48 180 line;
#X obj 48 205 s carrier;
#X msg 31 49 443 \, 45 3500;
#X msg 48 155 100 \, 88 4500;
#X msg 239 134 130 \, 110 1000;
#X msg 350 134 303 \, 192 1000;
#X obj 239 184 s earliest;
#X connect 0 0 19 0;
#X connect 0 0 3 0;
#X connect 0 0 20 0;
#X connect 1 0 2 0;
#X connect 3 0 4 0;
#X connect 3 0 21 0;
#X connect 3 0 15 0;
#X connect 3 0 12 0;
#X connect 3 0 22 0;
#X connect 4 0 7 0;
#X connect 5 0 6 0;
#X connect 6 0 7 0;
#X connect 8 0 23 0;
#X connect 9 0 10 0;
#X connect 11 0 13 0;
#X connect 12 0 11 0;
#X connect 14 0 16 0;
#X connect 15 0 14 0;
#X connect 17 0 18 0;
#X connect 19 0 1 0;
#X connect 20 0 17 0;
#X connect 21 0 8 0;
#X connect 22 0 9 0;
#X restore 502 797 pd bass_pedal;
#X f 18;
#X obj 502 779 bng 15 250 50 0 empty empty empty 17 7 0 10 #fcfcfc
#000000 #000000;
#X obj 625 780 bng 15 250 50 0 empty empty empty 17 7 0 10 #fcfcfc
#000000 #000000;
#N canvas 618 416 450 401 pedal_var 0;
#X obj 71 27 inlet;
#X obj 283 27 inlet;
#X obj 125 87 metro 1000;
#X obj 125 210 + 50;
#X floatatom 157 230 5 0 0 0 - - - 0;
#X floatatom 226 153 5 0 0 0 - - - 0;
#X obj 183 133 + 500;
#X msg 71 52 1;
#X msg 283 52 0;
#X obj 174 113 random 3000;
#X obj 125 185 random 400;
#X obj 128 331 line;
#X msg 128 297 \$1 \, \$2 \$3 1;
#X obj 128 272 pack \$1 \$2 \$3;
#X obj 41 211 + 50;
#X floatatom 73 231 5 0 0 0 - - - 0;
#X obj 41 186 random 400;
#X obj 128 360 s depth_b;
#X connect 0 0 7 0;
#X connect 1 0 8 0;
#X connect 2 0 9 0;
#X connect 2 0 10 0;
#X connect 2 0 16 0;
#X connect 3 0 4 0;
#X connect 3 0 13 1;
#X connect 6 0 5 0;
#X connect 6 0 2 1;
#X connect 6 0 13 2;
#X connect 7 0 2 0;
#X connect 8 0 2 0;
#X connect 9 0 6 0;
#X connect 10 0 3 0;
#X connect 11 0 17 0;
#X connect 12 0 11 0;
#X connect 13 0 12 0;
#X connect 14 0 15 0;
#X connect 14 0 13 0;
#X connect 16 0 14 0;
#X restore 524 773 pd pedal_var;
#X obj 524 754 bng 15 250 50 0 empty empty empty 17 7 0 10 #fcfcfc
#000000 #000000;
#X obj 605 755 bng 15 250 50 0 empty empty empty 17 7 0 10 #fcfcfc
#000000 #000000;
#X obj 589 922 bng 15 250 50 0 empty empty empty 17 7 0 10 #fcfcfc
#000000 #000000;
#X obj 649 921 bng 15 250 50 0 empty empty empty 17 7 0 10 #fcfcfc
#000000 #000000;
#N canvas 1310 241 450 300 diminuendo 0;
#X obj 54 52 inlet;
#X obj 54 161 line;
#X obj 54 186 s volume;
#X msg 54 136 0.02 \, 0 6000;
#X obj 157 72 del 8000;
#X connect 0 0 4 0;
#X connect 1 0 2 0;
#X connect 3 0 1 0;
#X connect 4 0 3 0;
#X restore 67 621 pd diminuendo;
#X obj 67 601 bng 15 250 50 0 empty empty empty 17 7 0 10 #fcfcfc #000000
#000000;
#N canvas 896 184 497 566 chords 0;
#X obj 23 14 inlet;
#X obj 245 13 inlet;
#X obj 23 73 line;
#X msg 23 48 110 \, 129 1500;
#X obj 23 98 s soonest;
#X obj 34 151 line;
#X msg 34 126 106 \, 303 2000;
#X obj 34 176 s latest;
#X obj 64 230 line;
#X msg 64 205 78 \, 511 1300;
#X obj 64 255 s depth_a;
#X obj 39 313 line;
#X obj 39 338 s depth_b;
#X msg 39 288 110 \, 283 1500;
#X msg 245 38 0;
#X obj 115 338 line;
#X msg 115 313 78 \, 121 2300;
#X obj 115 363 s carrier;
#X obj 13 394 line;
#X msg 13 369 330 \, 710 3000;
#X obj 13 419 s mod;
#X obj 68 429 line;
#X msg 68 404 78 \, 283 1700;
#X obj 68 454 s depth;
#X obj 182 86 delay 3000;
#X obj 182 111 metro 1000;
#X obj 182 136 bang;
#X floatatom 254 221 5 0 0 0 - - - 0;
#X msg 131 91 1;
#X obj 277 147 bng 15 250 50 0 empty empty empty 17 7 0 10 #fcfcfc
#000000 #000000;
#X obj 277 169 int 1;
#X obj 254 197 expr ($f1 + 1) % 2;
#X obj 254 249 select 0 1;
#X obj 254 313 + 10;
#X obj 285 381 int;
#X obj 285 406 s delay_time;
#X floatatom 254 338 5 0 0 0 - - - 0;
#X floatatom 334 339 5 0 0 0 - - - 0;
#X obj 334 289 random 240;
#X obj 254 288 random 50;
#X obj 334 314 + 100;
#X obj 299 99 random 500;
#X obj 299 124 + 1300;
#X text 227 473 good with mod|carrier|depth wanderer;
#X obj 26 508 line;
#X obj 26 533 s volume;
#X msg 26 483 0.008 \, 0.02 1700;
#X connect 0 0 3 0;
#X connect 0 0 6 0;
#X connect 0 0 9 0;
#X connect 0 0 13 0;
#X connect 0 0 16 0;
#X connect 0 0 19 0;
#X connect 0 0 22 0;
#X connect 0 0 24 0;
#X connect 1 0 14 0;
#X connect 2 0 4 0;
#X connect 3 0 2 0;
#X connect 5 0 7 0;
#X connect 6 0 5 0;
#X connect 8 0 10 0;
#X connect 9 0 8 0;
#X connect 11 0 12 0;
#X connect 13 0 11 0;
#X connect 14 0 25 0;
#X connect 15 0 17 0;
#X connect 16 0 15 0;
#X connect 18 0 20 0;
#X connect 19 0 18 0;
#X connect 21 0 23 0;
#X connect 22 0 21 0;
#X connect 24 0 25 0;
#X connect 25 0 26 0;
#X connect 25 0 41 0;
#X connect 26 0 30 0;
#X connect 26 0 34 0;
#X connect 27 0 30 1;
#X connect 27 0 32 0;
#X connect 28 0 25 0;
#X connect 29 0 30 0;
#X connect 30 0 31 0;
#X connect 31 0 27 0;
#X connect 32 0 39 0;
#X connect 32 1 38 0;
#X connect 33 0 34 1;
#X connect 33 0 36 0;
#X connect 34 0 35 0;
#X connect 38 0 40 0;
#X connect 39 0 33 0;
#X connect 40 0 34 1;
#X connect 40 0 37 0;
#X connect 41 0 42 0;
#X connect 42 0 25 1;
#X connect 44 0 45 0;
#X connect 46 0 44 0;
#X restore 589 941 pd chords;
#X obj 2 843 bng 15 250 50 0 empty empty empty 17 7 0 10 #fcfcfc #000000
#000000;
#N canvas 1143 503 450 300 space_comet_effect_3 0;
#X obj 33 25 inlet;
#X obj 218 127 line;
#X obj 218 72 delay 1000;
#X obj 218 152 s carrier;
#X msg 218 101 1275 \, 115 3000 180;
#X connect 0 0 4 0;
#X connect 1 0 3 0;
#X connect 2 0 4 0;
#X connect 4 0 1 0;
#X restore 2 861 pd space_comet_effect_3;
#X obj 104 79 bng 15 250 50 0 empty empty empty 17 7 0 10 #fcfcfc #000000
#000000;
#X obj 3 665 r cluster;
#X obj 67 884 r sce_2;
#X obj 6 907 r sce_1;
#X obj 2 819 r sce_3;
#X obj 60 799 r s_ricochet;
#X obj 162 654 r mod_up;
#X obj 288 843 r drift_start;
#X obj 397 848 r drift_end;
#X obj 263 823 r mod_wanderer_start;
#X obj 414 868 r mod_wanderer_end;
#X obj 240 803 r depth_wanderer_start;
#X obj 440 888 r depth_wanderer_end;
#X obj 67 579 r end_rest;
#X obj 3 580 r start;
#X obj 104 94 s start;
#X obj 589 881 r chords_start;
#X obj 649 901 r chords_end;
#X obj 478 665 r skips_start;
#X obj 643 771 r skips_end;
#X obj 502 685 r bass_pedal_start;
#X obj 524 705 r pedal_var_start;
#X obj 605 731 r bass_pedal_end;
#X obj 356 609 r recitativo_start;
#X obj 463 629 r recitativo_end;
#X obj 157 94 s sce_1;
#X obj 208 54 delay 5000;
#X obj 208 76 bng 15 250 50 0 empty empty empty 17 7 0 10 #fcfcfc #000000
#000000;
#X obj 210 94 s sce_2;
#X obj 229 74 s sce_3;
#X obj 393 589 r recitativo_params;
#X obj 387 740 r del_change;
#N canvas 1375 696 450 300 new_delay 0;
#X obj 37 37 inlet;
#X obj 37 202 s delay_time;
#X obj 135 82 line;
#X obj 135 107 s mod;
#X obj 135 39 bng 15 250 50 0 empty empty empty 17 7 0 10 #fcfcfc #000000
#000000;
#X msg 135 57 800 \, 0 300;
#X obj 296 122 line;
#X obj 296 147 s mod;
#X obj 296 69 delay 499;
#X msg 37 62 470;
#X msg 296 97 800 \, 0.1 500;
#X connect 0 0 9 0;
#X connect 0 0 4 0;
#X connect 2 0 3 0;
#X connect 4 0 5 0;
#X connect 4 0 8 0;
#X connect 5 0 2 0;
#X connect 6 0 7 0;
#X connect 8 0 10 0;
#X connect 9 0 1 0;
#X connect 10 0 6 0;
#X restore 387 779 pd new_delay;
#X obj 287 76 bng 15 250 50 0 empty empty empty 17 7 0 10 #fcfcfc #000000
#000000;
#X obj 287 94 s del_change;
#X obj 352 77 bng 15 250 50 0 empty empty empty 17 7 0 10 #fcfcfc #000000
#000000;
#X obj 375 74 s recitativo_start;
#X obj 418 54 s start;
#X obj 287 54 del 4600;
#N canvas 1323 358 450 368 delay_drift 0;
#X obj 116 10 inlet;
#X msg 116 35 0;
#X obj 145 331 s delay_time;
#X msg 72 35 1;
#X obj 134 166 select 0 1 2 3 4 5;
#X obj 134 120 random 6;
#X floatatom 193 140 5 0 0 0 - - - 0;
#X obj 72 10 inlet;
#X msg 181 281 \$1;
#X msg 175 192 178;
#X msg 216 193 220;
#X msg 154 217 80;
#X msg 236 218 440;
#X msg 195 217 120;
#X msg 134 191 620;
#X obj 116 83 metro 500;
#X connect 0 0 1 0;
#X connect 1 0 15 0;
#X connect 3 0 15 0;
#X connect 4 0 14 0;
#X connect 4 1 11 0;
#X connect 4 2 9 0;
#X connect 4 3 13 0;
#X connect 4 4 10 0;
#X connect 4 5 12 0;
#X connect 5 0 6 0;
#X connect 5 0 4 0;
#X connect 7 0 3 0;
#X connect 8 0 2 0;
#X connect 9 0 8 0;
#X connect 10 0 8 0;
#X connect 11 0 8 0;
#X connect 12 0 8 0;
#X connect 13 0 8 0;
#X connect 14 0 8 0;
#X connect 15 0 5 0;
#X restore 655 709 pd delay_drift;
#X obj 655 691 bng 15 250 50 0 empty empty empty 17 7 0 10 #fcfcfc
#000000 #000000;
#X obj 750 691 bng 15 250 50 0 empty empty empty 17 7 0 10 #fcfcfc
#000000 #000000;
#X obj 655 649 r del_drift_start;
#X obj 665 671 r del_drift_end;
#X obj 533 74 bng 15 250 50 0 empty empty empty 17 7 0 10 #fcfcfc #000000
#000000;
#X obj 533 89 s del_drift_start;
#X obj 568 55 del 4000;
#X obj 646 75 bng 15 250 50 0 empty empty empty 17 7 0 10 #fcfcfc #000000
#000000;
#X obj 646 50 s del_drift_end;
#X obj 719 70 s strophe_2;
#X obj 667 90 s drift_start;
#X obj 2 128 r strophe_2;
#X obj 2 160 bng 15 250 50 0 empty empty empty 17 7 0 10 #fcfcfc #000000
#000000;
#X obj 23 159 del 5000;
#X obj 23 181 bng 15 250 50 0 empty empty empty 17 7 0 10 #fcfcfc #000000
#000000;
#X obj 23 199 s mod_wanderer_start;
#X obj 83 159 del 4000;
#X obj 83 181 bng 15 250 50 0 empty empty empty 17 7 0 10 #fcfcfc #000000
#000000;
#X obj 120 179 s depth_wanderer_start;
#X obj 646 110 s recitativo_end;
#X obj 169 202 bng 15 250 50 0 empty empty empty 17 7 0 10 #fcfcfc
#000000 #000000;
#X obj 239 159 s cluster;
#X obj 189 199 s mod_wanderer_end;
#X obj 281 179 s depth_wanderer_end;
#X obj 319 199 s drift_end;
#X obj 476 54 del 10000;
#X obj 379 159 bng 15 250 50 0 empty empty empty 17 7 0 10 #fcfcfc
#000000 #000000;
#X obj 402 199 s s_ricochet;
#X obj 429 179 bng 15 250 50 0 empty empty empty 17 7 0 10 #fcfcfc
#000000 #000000;
#X obj 493 201 bng 15 250 50 0 empty empty empty 17 7 0 10 #fcfcfc
#000000 #000000;
#X obj 512 199 s mod_up;
#X obj 575 199 bng 15 250 50 0 empty empty empty 17 7 0 10 #fcfcfc
#000000 #000000;
#X obj 575 219 s delay_variation;
#X obj 599 179 bng 15 250 50 0 empty empty empty 17 7 0 10 #fcfcfc
#000000 #000000;
#X obj 229 648 r delay_variation;
#X obj 662 838 bng 15 250 50 0 empty empty empty 17 7 0 10 #fcfcfc
#000000 #000000;
#X obj 756 840 bng 15 250 50 0 empty empty empty 17 7 0 10 #fcfcfc
#000000 #000000;
#N canvas 1426 519 450 334 descent 0;
#X obj 60 33 inlet;
#X obj 60 58 metro 1000;
#X obj 60 133 line;
#X obj 60 158 s carrier;
#X obj 171 13 inlet;
#X msg 171 38 0;
#X obj 60 83 random 10000;
#X msg 60 108 \$1 100;
#X obj 24 222 line;
#X obj 24 247 s mod;
#X msg 24 197 4437 \, 88 4000 800;
#X msg 174 83 10000 \, 100 5000 1000;
#X obj 174 108 line;
#X floatatom 174 138 5 0 0 0 - - - 0;
#X obj 234 130 del 8000;
#X msg 234 155 94 \, 1385 6000 1000;
#X obj 234 180 line;
#X obj 234 205 s delay_time;
#X obj 89 261 line;
#X obj 89 286 s volume;
#X msg 89 236 0.0189 \, 0.009 500;
#X connect 0 0 1 0;
#X connect 0 0 10 0;
#X connect 0 0 11 0;
#X connect 0 0 14 0;
#X connect 0 0 20 0;
#X connect 1 0 6 0;
#X connect 2 0 3 0;
#X connect 4 0 5 0;
#X connect 5 0 1 0;
#X connect 6 0 7 0;
#X connect 7 0 2 0;
#X connect 8 0 9 0;
#X connect 10 0 8 0;
#X connect 11 0 12 0;
#X connect 12 0 13 0;
#X connect 12 0 6 1;
#X connect 14 0 15 0;
#X connect 15 0 16 0;
#X connect 16 0 17 0;
#X connect 18 0 19 0;
#X connect 20 0 18 0;
#X restore 662 855 pd descent;
#X f 15;
#X obj 662 800 r descent_start;
#X obj 676 820 r descent_end;
#X obj 173 306 s descent_end;
#X obj 3 229 r strophe_3;
#X obj 617 179 s drift_start;
#X obj 666 164 bng 15 250 50 0 empty empty empty 17 7 0 10 #fcfcfc
#000000 #000000;
#X obj 575 239 s mod_wanderer_start;
#X obj 720 164 bng 15 250 50 0 empty empty empty 17 7 0 10 #fcfcfc
#000000 #000000;
#X obj 575 259 s depth_wanderer_start;
#X obj 735 184 bng 15 250 50 0 empty empty empty 17 7 0 10 #fcfcfc
#000000 #000000;
#X obj 724 199 s strophe_3;
#X obj 735 164 del 1500;
#X obj 169 159 del 7500;
#X obj 726 140 del 1500;
#X obj 3 272 bng 15 250 50 0 empty empty empty 17 7 0 10 #fcfcfc #000000
#000000;
#X obj 21 269 del 6000;
#X obj 2 314 bng 15 250 50 0 empty empty empty 17 7 0 10 #fcfcfc #000000
#000000;
#X obj 21 289 s depth_wanderer_end;
#X obj 21 309 s mod_wanderer_end;
#X obj 23 329 s drift_end;
#X obj 87 250 bng 15 250 50 0 empty empty empty 17 7 0 10 #fcfcfc #000000
#000000;
#X obj 87 269 s descent_start;
#X obj 104 249 del 11000;
#X obj 104 331 bng 15 250 50 0 empty empty empty 17 7 0 10 #fcfcfc
#000000 #000000;
#X obj 173 249 del 2000;
#X obj 173 289 bng 15 250 50 0 empty empty empty 17 7 0 10 #fcfcfc
#000000 #000000;
#X obj 198 326 s skips_start;
#X obj 198 269 del 2000;
#X obj 198 289 bng 15 250 50 0 empty empty empty 17 7 0 10 #fcfcfc
#000000 #000000;
#X obj 666 140 del 3500;
#X obj 235 289 bng 15 250 50 0 empty empty empty 17 7 0 10 #fcfcfc
#000000 #000000;
#X obj 235 366 s bass_pedal_start;
#X obj 265 289 bng 15 250 50 0 empty empty empty 17 7 0 10 #fcfcfc
#000000 #000000;
#X obj 265 346 s pedal_var_start;
#X obj 72 667 bng 15 250 50 0 empty empty empty 17 7 0 10 #fcfcfc #000000
#000000;
#X obj 72 645 r cluster_2;
#N canvas 1333 649 540 352 cluster_2 0;
#X obj 35 44 inlet;
#X obj 35 112 line;
#X obj 35 137 s carrier;
#X obj 122 140 s mod;
#X msg 277 87 0.02;
#X obj 277 137 s volume;
#X obj 446 138 s feedback;
#X obj 163 207 delay 500;
#X obj 163 257 line;
#X obj 188 311 s depth;
#X obj 237 258 line;
#X obj 237 283 s depth;
#X obj 268 206 bng 15 250 50 0 empty empty empty 17 7 0 10 #fcfcfc
#000000 #000000;
#X obj 135 217 bng 15 250 50 0 empty empty empty 17 7 0 10 #fcfcfc
#000000 #000000;
#X floatatom 163 282 5 0 0 0 - - - 0;
#X msg 446 88 0.85;
#X msg 163 232 0 \, 1000 3000 1;
#X obj 302 196 delay 3600;
#X obj 122 112 line;
#X obj 122 37 delay 700;
#X msg 35 87 94 \, 88 500;
#X msg 122 87 88 \, 540 3000 900;
#X msg 302 221 1000 \, 0 1000 1;
#X msg 440 228 446;
#X obj 355 138 s delay_time;
#X obj 440 253 s delay_time;
#X obj 317 274 line;
#X obj 317 299 s carrier;
#X msg 317 249 88 \, 5 2000;
#X obj 403 35 line;
#X obj 403 60 s delay_time;
#X msg 403 10 68 \, 268 100;
#X msg 355 88 268;
#X connect 0 0 20 0;
#X connect 0 0 4 0;
#X connect 0 0 32 0;
#X connect 0 0 15 0;
#X connect 0 0 7 0;
#X connect 0 0 17 0;
#X connect 0 0 19 0;
#X connect 1 0 2 0;
#X connect 4 0 5 0;
#X connect 7 0 16 0;
#X connect 8 0 9 0;
#X connect 8 0 14 0;
#X connect 10 0 11 0;
#X connect 12 0 22 0;
#X connect 13 0 16 0;
#X connect 15 0 6 0;
#X connect 16 0 8 0;
#X connect 17 0 22 0;
#X connect 17 0 23 0;
#X connect 17 0 28 0;
#X connect 18 0 3 0;
#X connect 19 0 21 0;
#X connect 20 0 1 0;
#X connect 21 0 18 0;
#X connect 22 0 10 0;
#X connect 23 0 25 0;
#X connect 26 0 27 0;
#X connect 28 0 26 0;
#X connect 29 0 30 0;
#X connect 31 0 29 0;
#X connect 32 0 24 0;
#X restore 72 684 pd cluster_2;
#X obj 331 304 bng 15 250 50 0 empty empty empty 17 7 0 10 #fcfcfc
#000000 #000000;
#X obj 359 296 s bass_pedal_end;
#X obj 359 276 s pedal_var_end;
#X obj 359 316 s skips_end;
#X obj 388 336 s cluster_2;
#X obj 625 751 r bass_pedal_end;
#X obj 316 159 del 4500;
#X obj 261 269 del 8000;
#X obj 235 249 del 7000;
#X obj 403 159 del 9000;
#X obj 470 159 del 8000;
#X obj 331 256 del 9000;
#X obj 518 314 s strophe_4;
#X obj 3 413 r strophe_4;
#X obj 3 443 bng 15 250 50 0 empty empty empty 17 7 0 10 #fcfcfc #000000
#000000;
#X obj 3 463 s start;
#X obj 56 443 s recitativo_start;
#X msg 392 629 800;
#X obj 165 604 bng 15 250 50 0 empty empty empty 17 7 0 10 #fcfcfc
#000000 #000000;
#N canvas 735 373 533 496 delay_increase 0;
#X obj 37 19 inlet;
#X obj 37 69 s delay_time;
#X msg 37 44 170;
#X obj 89 123 s delay_time;
#X obj 141 179 s delay_time;
#X msg 89 98 210;
#X msg 141 154 280;
#X obj 193 239 s delay_time;
#X msg 193 214 350;
#X obj 245 300 s delay_time;
#X obj 297 367 s delay_time;
#X obj 89 42 delay 2000;
#X obj 141 96 delay 2500;
#X obj 193 152 delay 3500;
#X obj 245 212 delay 4500;
#X msg 245 275 490;
#X msg 297 336 500;
#X obj 297 273 delay 2000;
#X connect 0 0 2 0;
#X connect 0 0 11 0;
#X connect 2 0 1 0;
#X connect 5 0 3 0;
#X connect 6 0 4 0;
#X connect 8 0 7 0;
#X connect 11 0 5 0;
#X connect 11 0 12 0;
#X connect 12 0 6 0;
#X connect 12 0 13 0;
#X connect 13 0 8 0;
#X connect 13 0 14 0;
#X connect 14 0 15 0;
#X connect 14 0 17 0;
#X connect 15 0 9 0;
#X connect 16 0 10 0;
#X connect 17 0 16 0;
#X restore 165 621 pd delay_increase;
#X obj 165 582 r delay_increase;
#X obj 56 463 s delay_increase;
#X obj 190 452 bng 15 250 50 0 empty empty empty 17 7 0 10 #fcfcfc
#000000 #000000;
#X obj 56 483 s recitativo_params;
#X msg 428 629 2500;
#X obj 212 468 s chords_start;
#X obj 314 454 bng 15 250 50 0 empty empty empty 17 7 0 10 #fcfcfc
#000000 #000000;
#X obj 374 429 s drift_start;
#X obj 374 449 s mod_wanderer_start;
#X obj 374 469 s depth_wanderer_start;
#X obj 508 414 bng 15 250 50 0 empty empty empty 17 7 0 10 #fcfcfc
#000000 #000000;
#X obj 568 409 s drift_end;
#X obj 568 429 s mod_wanderer_end;
#X obj 568 449 s depth_wanderer_end;
#X obj 568 469 s sce_1;
#X obj 696 367 delay 5000;
#X obj 696 392 bng 15 250 50 0 empty empty empty 17 7 0 10 #fcfcfc
#000000 #000000;
#X obj 698 410 s sce_2;
#X obj 716 390 s sce_3;
#X obj 568 489 s chords_end;
#X obj 3 750 bng 15 250 50 0 empty empty empty 17 7 0 10 #fcfcfc #000000
#000000;
#X obj 3 728 r cluster_3;
#N canvas 877 597 586 378 cluster_3 0;
#X obj 35 44 inlet;
#X obj 277 137 s volume;
#X obj 446 138 s feedback;
#X obj 163 207 delay 500;
#X obj 163 257 line;
#X obj 188 311 s depth;
#X obj 237 258 line;
#X obj 237 283 s depth;
#X obj 268 206 bng 15 250 50 0 empty empty empty 17 7 0 10 #fcfcfc
#000000 #000000;
#X obj 135 217 bng 15 250 50 0 empty empty empty 17 7 0 10 #fcfcfc
#000000 #000000;
#X floatatom 163 282 5 0 0 0 - - - 0;
#X msg 446 88 0.85;
#X msg 163 232 0 \, 1000 3000 1;
#X obj 302 196 delay 3600;
#X msg 302 221 1000 \, 0 1000 1;
#X obj 440 278 s delay_time;
#X msg 440 228 173 \, 846 5000;
#X obj 440 253 line;
#X msg 277 87 0.008 \, 0.02 500 1;
#X connect 0 0 18 0;
#X connect 0 0 11 0;
#X connect 0 0 3 0;
#X connect 0 0 13 0;
#X connect 0 0 16 0;
#X connect 3 0 12 0;
#X connect 4 0 5 0;
#X connect 4 0 10 0;
#X connect 6 0 7 0;
#X connect 8 0 14 0;
#X connect 9 0 12 0;
#X connect 11 0 2 0;
#X connect 12 0 4 0;
#X connect 13 0 14 0;
#X connect 14 0 6 0;
#X connect 16 0 17 0;
#X connect 17 0 15 0;
#X connect 18 0 1 0;
#X restore 3 767 pd cluster_3;
#X obj 667 469 s recitativo_end;
#X obj 720 430 del 3500;
#X obj 720 452 bng 15 250 50 0 empty empty empty 17 7 0 10 #fcfcfc
#000000 #000000;
#X obj 667 489 s cluster_3;
#X obj 720 509 s end_rest;
#X obj 190 428 del 16000;
#X obj 508 390 del 8000;
#X obj 653 553 s osc_on_off;
#X msg 653 531 0;
#X obj 387 762 bng 15 250 50 0 empty empty empty 17 7 0 10 #fcfcfc
#000000 #000000;
#N canvas 1378 662 450 300 volume_change 0;
#X obj 27 15 inlet;
#X obj 27 65 line;
#X obj 27 90 s volume;
#X obj 114 83 inlet;
#X obj 114 133 line;
#X obj 114 158 s volume;
#X obj 199 9 inlet;
#X obj 199 59 line;
#X obj 199 84 s volume;
#X msg 27 40 0.018 \, 0.02 1700 1;
#X msg 114 108 0.02 \, 0.0089 300 1;
#X msg 199 34 0.0089 \, 0.008 500 1;
#X obj 298 76 inlet;
#X obj 298 126 line;
#X obj 298 151 s volume;
#X msg 298 101 0.0089 \, 0.02 1000 1;
#X connect 0 0 9 0;
#X connect 1 0 2 0;
#X connect 3 0 10 0;
#X connect 4 0 5 0;
#X connect 6 0 11 0;
#X connect 7 0 8 0;
#X connect 9 0 1 0;
#X connect 10 0 4 0;
#X connect 11 0 7 0;
#X connect 12 0 15 0;
#X connect 13 0 14 0;
#X connect 15 0 13 0;
#X restore 595 629 pd volume_change;
#X obj 314 430 del 7000;
#X obj 595 614 bng 15 250 50 0 empty empty empty 17 7 0 10 #fcfcfc
#000000 #000000;
#X obj 595 592 r vch1;
#X obj 641 614 bng 15 250 50 0 empty empty empty 17 7 0 10 #fcfcfc
#000000 #000000;
#X obj 641 592 r vch2;
#X obj 687 614 bng 15 250 50 0 empty empty empty 17 7 0 10 #fcfcfc
#000000 #000000;
#X obj 687 592 r vch3;
#X obj 263 497 del 6500;
#X obj 263 519 bng 15 250 50 0 empty empty empty 17 7 0 10 #fcfcfc
#000000 #000000;
#X obj 190 506 s vch1;
#X obj 263 536 s vch2;
#X obj 508 513 bng 15 250 50 0 empty empty empty 17 7 0 10 #fcfcfc
#000000 #000000;
#X obj 508 489 del 7500;
#X obj 508 533 s vch3;
#X obj 653 509 del 16000;
#X obj 475 299 bng 15 250 50 0 empty empty empty 17 7 0 10 #fcfcfc
#000000 #000000;
#X obj 352 54 del 4000;
#X obj 475 277 del 9000;
#X obj 733 614 bng 15 250 50 0 empty empty empty 17 7 0 10 #fcfcfc
#000000 #000000;
#X obj 733 592 r vch4;
#X obj 571 533 bng 15 250 50 0 empty empty empty 17 7 0 10 #fcfcfc
#000000 #000000;
#X obj 571 553 s vch4;
#X text 262 2 Métamorphose pour FM & Tape Delay;
#X obj 571 509 del 4500;
#X obj 532 159 del 10000;
#X obj 599 159 del 11000;
#X obj 226 739 r tempo_2;
#X obj 293 739 r tempo_3;
#X obj 590 199 s tempo_2;
#X obj 515 219 del 7000;
#X obj 515 241 bng 15 250 50 0 empty empty empty 17 7 0 10 #fcfcfc
#000000 #000000;
#X obj 657 199 s tempo_3;
#X msg 293 759 150;
#N canvas 1397 94 450 365 carrier_percussive_motiv 0;
#X obj 48 29 inlet;
#X msg 48 54 270 200;
#X obj 48 79 line;
#X obj 48 104 s depth;
#X obj 214 144 + 20;
#X floatatom 214 169 5 0 0 0 - - - 0;
#X obj 177 209 s carrier;
#X obj 358 54 inlet;
#X msg 358 79 0;
#X obj 53 187 line;
#X msg 53 162 15 200;
#X obj 53 212 s delay_time;
#X obj 165 124 random 2000;
#X obj 165 99 metro 200;
#X obj 69 281 line;
#X obj 69 306 s volume;
#X msg 69 256 0.02 \, 0.004 200;
#X obj 198 23 inlet;
#X msg 198 48 \$1 1000;
#X obj 198 73 line;
#X connect 0 0 1 0;
#X connect 0 0 10 0;
#X connect 0 0 13 0;
#X connect 0 0 16 0;
#X connect 1 0 2 0;
#X connect 2 0 3 0;
#X connect 4 0 5 0;
#X connect 4 0 6 0;
#X connect 7 0 8 0;
#X connect 8 0 13 0;
#X connect 9 0 11 0;
#X connect 10 0 9 0;
#X connect 12 0 4 0;
#X connect 13 0 12 0;
#X connect 14 0 15 0;
#X connect 16 0 14 0;
#X connect 17 0 18 0;
#X connect 18 0 19 0;
#X connect 19 0 13 1;
#X restore 139 779 pd carrier_percussive_motiv;
#X f 32;
#X obj 139 716 r perc_motiv_start;
#X obj 360 713 r perc_motiv_end;
#X obj 106 346 s perc_motiv_end;
#X obj 448 179 s perc_motiv_start;
#X obj 3 372 bng 15 250 50 0 empty empty empty 17 7 0 10 #fcfcfc #000000
#000000;
#X obj 159 739 r tempo_1;
#X obj 91 392 bng 15 250 50 0 empty empty empty 17 7 0 10 #fcfcfc #000000
#000000;
#X obj 108 389 s tempo_1;
#X obj 20 369 s tempo_2;
#X obj 3 349 del 1000;
#X obj 91 369 del 3000;
#X connect 0 0 7 0;
#X connect 0 0 51 0;
#X connect 5 0 4 0;
#X connect 6 0 4 3;
#X connect 9 0 8 0;
#X connect 11 0 10 0;
#X connect 13 0 12 0;
#X connect 15 0 14 0;
#X connect 16 0 21 0;
#X connect 17 0 21 1;
#X connect 19 0 18 0;
#X connect 20 0 18 1;
#X connect 23 0 22 0;
#X connect 24 0 22 1;
#X connect 26 0 25 0;
#X connect 27 0 253 0;
#X connect 27 0 34 0;
#X connect 28 0 253 2;
#X connect 30 0 29 0;
#X connect 32 0 31 0;
#X connect 33 0 253 1;
#X connect 34 0 253 1;
#X connect 36 0 35 0;
#X connect 37 0 35 1;
#X connect 39 0 38 0;
#X connect 40 0 38 1;
#X connect 42 0 41 0;
#X connect 43 0 41 1;
#X connect 44 0 48 0;
#X connect 45 0 48 1;
#X connect 47 0 46 0;
#X connect 49 0 50 0;
#X connect 51 0 66 0;
#X connect 51 0 76 0;
#X connect 51 0 77 0;
#X connect 52 0 9 0;
#X connect 53 0 15 0;
#X connect 54 0 13 0;
#X connect 55 0 49 0;
#X connect 56 0 26 0;
#X connect 57 0 30 0;
#X connect 58 0 16 0;
#X connect 59 0 17 0;
#X connect 60 0 19 0;
#X connect 61 0 20 0;
#X connect 62 0 23 0;
#X connect 63 0 24 0;
#X connect 64 0 47 0;
#X connect 65 0 11 0;
#X connect 67 0 44 0;
#X connect 68 0 45 0;
#X connect 69 0 36 0;
#X connect 70 0 37 0;
#X connect 71 0 39 0;
#X connect 72 0 42 0;
#X connect 73 0 43 0;
#X connect 74 0 5 0;
#X connect 75 0 6 0;
#X connect 77 0 78 0;
#X connect 77 0 89 0;
#X connect 78 0 79 0;
#X connect 78 0 80 0;
#X connect 81 0 183 0;
#X connect 81 0 190 0;
#X connect 82 0 218 0;
#X connect 84 0 85 0;
#X connect 86 0 87 0;
#X connect 86 0 88 0;
#X connect 86 0 116 0;
#X connect 89 0 84 0;
#X connect 89 0 236 0;
#X connect 91 0 90 0;
#X connect 92 0 90 1;
#X connect 93 0 91 0;
#X connect 94 0 92 0;
#X connect 95 0 96 0;
#X connect 95 0 97 0;
#X connect 97 0 98 0;
#X connect 98 0 99 0;
#X connect 98 0 100 0;
#X connect 98 0 101 0;
#X connect 98 0 110 0;
#X connect 102 0 103 0;
#X connect 103 0 104 0;
#X connect 104 0 105 0;
#X connect 104 0 107 0;
#X connect 105 0 106 0;
#X connect 107 0 108 0;
#X connect 107 0 141 0;
#X connect 108 0 109 0;
#X connect 111 0 112 0;
#X connect 111 0 113 0;
#X connect 111 0 114 0;
#X connect 111 0 115 0;
#X connect 111 0 172 0;
#X connect 116 0 95 0;
#X connect 117 0 118 0;
#X connect 117 0 175 0;
#X connect 119 0 257 0;
#X connect 120 0 121 0;
#X connect 122 0 123 0;
#X connect 122 0 248 0;
#X connect 124 0 133 0;
#X connect 125 0 32 0;
#X connect 126 0 128 0;
#X connect 127 0 128 1;
#X connect 129 0 126 0;
#X connect 130 0 127 0;
#X connect 132 0 143 0;
#X connect 134 0 135 0;
#X connect 136 0 137 0;
#X connect 138 0 139 0;
#X connect 140 0 138 0;
#X connect 141 0 111 0;
#X connect 142 0 136 0;
#X connect 142 0 140 0;
#X connect 143 0 144 0;
#X connect 143 0 263 0;
#X connect 144 0 145 0;
#X connect 144 0 149 0;
#X connect 144 0 151 0;
#X connect 145 0 147 0;
#X connect 145 0 148 0;
#X connect 145 0 146 0;
#X connect 149 0 150 0;
#X connect 151 0 152 0;
#X connect 151 0 153 0;
#X connect 152 0 256 0;
#X connect 153 0 154 0;
#X connect 153 0 156 0;
#X connect 154 0 131 0;
#X connect 156 0 157 0;
#X connect 156 0 174 0;
#X connect 157 0 155 0;
#X connect 158 0 134 0;
#X connect 158 0 142 0;
#X connect 159 0 160 0;
#X connect 161 0 162 0;
#X connect 163 0 165 0;
#X connect 164 0 163 0;
#X connect 166 0 168 0;
#X connect 166 0 167 0;
#X connect 166 0 169 0;
#X connect 166 0 170 0;
#X connect 166 0 237 0;
#X connect 171 0 40 0;
#X connect 172 0 117 0;
#X connect 173 0 161 0;
#X connect 173 0 177 0;
#X connect 174 0 159 0;
#X connect 174 0 173 0;
#X connect 175 0 119 0;
#X connect 175 0 176 0;
#X connect 176 0 120 0;
#X connect 176 0 244 0;
#X connect 177 0 166 0;
#X connect 179 0 180 0;
#X connect 180 0 181 0;
#X connect 180 0 182 0;
#X connect 180 0 189 0;
#X connect 180 0 187 0;
#X connect 180 0 214 0;
#X connect 183 0 4 1;
#X connect 184 0 185 0;
#X connect 186 0 184 0;
#X connect 188 0 191 0;
#X connect 188 0 220 0;
#X connect 188 0 227 0;
#X connect 188 0 229 0;
#X connect 190 0 4 2;
#X connect 192 0 194 0;
#X connect 192 0 195 0;
#X connect 192 0 193 0;
#X connect 196 0 197 0;
#X connect 196 0 198 0;
#X connect 196 0 199 0;
#X connect 196 0 200 0;
#X connect 196 0 201 0;
#X connect 196 0 205 0;
#X connect 201 0 202 0;
#X connect 202 0 203 0;
#X connect 202 0 204 0;
#X connect 202 0 209 0;
#X connect 202 0 210 0;
#X connect 206 0 208 0;
#X connect 207 0 206 0;
#X connect 210 0 211 0;
#X connect 211 0 212 0;
#X connect 211 0 213 0;
#X connect 211 0 234 0;
#X connect 214 0 188 0;
#X connect 215 0 196 0;
#X connect 217 0 216 0;
#X connect 218 0 83 0;
#X connect 220 0 192 0;
#X connect 220 0 215 0;
#X connect 220 0 232 0;
#X connect 221 0 219 0;
#X connect 222 0 221 0;
#X connect 223 0 219 1;
#X connect 224 0 223 0;
#X connect 225 0 219 2;
#X connect 226 0 225 0;
#X connect 227 0 228 0;
#X connect 228 0 230 0;
#X connect 231 0 233 0;
#X connect 232 0 231 0;
#X connect 232 0 243 0;
#X connect 234 0 217 0;
#X connect 235 0 178 0;
#X connect 236 0 86 0;
#X connect 237 0 235 0;
#X connect 238 0 219 3;
#X connect 239 0 238 0;
#X connect 240 0 241 0;
#X connect 243 0 240 0;
#X connect 244 0 122 0;
#X connect 244 0 245 0;
#X connect 244 0 249 0;
#X connect 245 0 124 0;
#X connect 245 0 158 0;
#X connect 246 0 33 0;
#X connect 247 0 252 0;
#X connect 249 0 250 0;
#X connect 250 0 251 0;
#X connect 252 0 253 1;
#X connect 254 0 27 0;
#X connect 255 0 28 0;
#X connect 258 0 262 0;
#X connect 259 0 34 0;
#X connect 260 0 261 0;
#X connect 263 0 258 0;
#X connect 263 0 264 0;
#X connect 264 0 260 0;
